<?xml version="1.0" standalone="no"?>
<!DOCTYPE svg PUBLIC "-//W3C//DTD SVG 1.1//EN" "http://www.w3.org/Graphics/SVG/1.1/DTD/svg11.dtd" >
<svg xmlns="http://www.w3.org/2000/svg">
<metadata>
<json>
<![CDATA[
{
	"fontFamily": "trade-icon",
	"majorVersion": 1,
	"minorVersion": 0,
	"version": "Version 1.0",
	"fontId": "trade-icon",
	"psName": "trade-icon",
	"subFamily": "Regular",
	"fullName": "trade-icon",
	"description": "Font generated by IcoMoon."
}
]]>
</json>
</metadata>
<defs>
<font id="trade-icon" horiz-adv-x="1024">
<font-face units-per-em="1024" ascent="960" descent="-64" />
<missing-glyph horiz-adv-x="1024" />
<glyph unicode="&#x20;" horiz-adv-x="512" d="" />
<glyph unicode="&#xe900;" glyph-name="ticon_0" data-tags="ticon_0" d="M779.378 78.222l-267.378 142.222-267.378-142.222 51.2 295.822-216.178 216.178 301.511 45.511 130.844 267.378 136.533-273.067 301.511-45.511-216.178-210.489 45.511-295.822zM512 283.022l193.422-102.4-34.133 216.178 153.6 153.6-216.178 28.444-96.711 193.422-96.711-193.422-216.178-28.444 153.6-153.6-34.133-216.178 193.422 102.4z" />
<glyph unicode="&#xe901;" glyph-name="ticon_1" data-tags="ticon_1" d="M840.758-80.168l-75.453 123.958h-37.726v-107.789h-53.895v269.474h134.737c43.116 0 80.842-37.726 80.842-80.842 0-37.726-26.947-70.063-59.284-80.842l59.284-97.011-48.505-26.947zM727.579 97.684h80.842c16.168 0 26.947 10.779 26.947 26.947s-10.779 26.947-26.947 26.947h-80.842v-53.895zM296.421-10.105h-53.895v107.789h-161.684v53.895h161.684v485.053h215.579v-53.895h-161.684v-592.842zM943.158 313.263h-215.579v431.158h-161.684v53.895h161.684v161.684h53.895v-592.842h161.684v-53.895z" />
<glyph unicode="&#xe902;" glyph-name="ticon_2" data-tags="ticon_2" d="M771.657 144.457l-51.2 84.114h-25.6v-73.143h-36.571v182.857h91.429c29.257 0 54.857-25.6 54.857-54.857 0-25.6-18.286-47.543-40.229-54.857l40.229-65.829-32.914-18.286zM694.857 265.143h54.857c10.971 0 18.286 7.314 18.286 18.286s-7.314 18.286-18.286 18.286h-54.857v-36.571zM402.286 192h-36.571v73.143h-109.714v36.571h109.714v329.143h146.286v-36.571h-109.714v-402.286zM841.143 411.429h-146.286v292.571h-109.714v36.571h109.714v109.714h36.571v-402.286h109.714v-36.571z" />
<glyph unicode="&#xe903;" glyph-name="ticon_3" data-tags="ticon_3" d="M1024 21.333h-832v42.667h789.333v256h-256v-256h-42.667v256h-192v42.667h192v256h-554.667v-256h192v-42.667h-192v-192h-42.667v832h938.667v-938.667zM725.333 362.667h256v554.667h-256v-256h256v-42.667h-256v-256zM128 661.333h554.667v256h-554.667v-256zM1024 42.667h-42.667c0 81.067-12.8 162.133-34.133 238.933l-520.533-166.4v-72.533h-42.667v59.733l-192-59.733-12.8 42.667 204.8 64v106.667h42.667v-93.867l507.733 157.867c-42.667 123.733-110.933 234.667-196.267 324.267l-256-256-29.867 34.133 256 256c-81.067 72.533-174.933 136.533-281.6 179.2v-430.933h-42.667v439.467l-230.4-746.667 179.2 179.2 29.867-29.867-179.2-179.2-29.867 29.867-38.4 12.8 230.4 750.933c-76.8 21.333-157.867 34.133-238.933 34.133v42.667c85.333 0 170.667-12.8 251.733-34.133l4.267 21.333 21.333-8.533h42.667v-34.133c119.467-42.667 221.867-110.933 311.467-196.267l226.133 226.133 29.867-29.867-226.133-230.4c93.867-98.133 162.133-213.333 204.8-341.333l21.333 4.267 12.8-42.667-21.333-4.267c25.6-76.8 38.4-162.133 38.4-247.467zM106.667-64c-59.733 0-106.667 46.933-106.667 106.667s46.933 106.667 106.667 106.667 106.667-46.933 106.667-106.667-46.933-106.667-106.667-106.667zM106.667 106.667c-34.133 0-64-29.867-64-64s29.867-64 64-64 64 29.867 64 64-29.867 64-64 64zM405.333 234.667c-59.733 0-106.667 46.933-106.667 106.667s46.933 106.667 106.667 106.667 106.667-46.933 106.667-106.667-46.933-106.667-106.667-106.667zM405.333 405.333c-34.133 0-64-29.867-64-64s29.867-64 64-64 64 29.867 64 64-29.867 64-64 64z" />
<glyph unicode="&#xe904;" glyph-name="ticon_4" data-tags="ticon_4" d="M866.462 841.846v39.385h-787.692v-787.692h39.385v748.308h748.308zM157.538 54.154v-39.385h787.692v787.692h-39.385v-748.308h-748.308zM169.354 77.785l716.8 716.8-27.569 27.569-716.8-716.8 27.569-27.569zM181.169 38.4l752.246 232.369-11.815 39.385-752.246-232.369 11.815-39.385zM141.785 105.354l232.369 748.308-39.385 11.815-232.369-748.308 39.385-11.815zM118.154 566.154h827.077v39.385h-827.077v-39.385zM118.154 290.462h827.077v39.385h-827.077v-39.385zM354.462 841.846v-827.077h39.385v827.077h-39.385zM630.154 841.846v-827.077h39.385v827.077h-39.385zM905.846 73.846l39.385-39.385c0 468.677-378.092 846.769-846.769 846.769l39.385-39.385c413.538-19.692 748.308-354.462 768-768zM98.462-24.615c31.508 0 59.077 27.569 59.077 59.077s-27.569 59.077-59.077 59.077-59.077-27.569-59.077-59.077c0-31.508 27.569-59.077 59.077-59.077zM98.462-64c-55.138 0-98.462 43.323-98.462 98.462s43.323 98.462 98.462 98.462 98.462-43.323 98.462-98.462-43.323-98.462-98.462-98.462zM925.538 802.462c31.508 0 59.077 27.569 59.077 59.077s-27.569 59.077-59.077 59.077-59.077-27.569-59.077-59.077 27.569-59.077 59.077-59.077v0zM925.538 763.077c-55.138 0-98.462 43.323-98.462 98.462s43.323 98.462 98.462 98.462 98.462-43.323 98.462-98.462-43.323-98.462-98.462-98.462z" />
<glyph unicode="&#xe905;" glyph-name="ticon_5" data-tags="ticon_5" horiz-adv-x="990" d="M146.041 510.074l-29.973 29.973 205.519 205.519c25.686 25.686 64.228 25.686 89.919 0l115.601-115.601c8.56-8.56 21.413-8.56 29.973-4.285l291.17 214.087 25.686-34.257-291.17-214.087c-25.686-17.121-59.946-17.121-85.63 4.285l-115.601 115.601c-8.56 8.56-21.413 8.56-29.973 0l-205.519-201.252zM685.533 527.201h128.453c25.686 0 42.825-17.121 42.825-42.825v-428.183h-727.91v171.278c0 25.686 17.121 42.825 42.825 42.825h128.453v85.63c0 25.686 17.121 42.825 42.825 42.825h128.453c25.686 0 42.825-17.121 42.825-42.825v-42.825h128.453v171.278c0 25.686 17.121 42.825 42.825 42.825zM685.533 99.022h128.453v385.358h-128.453v-385.358zM642.728 99.022v171.278h-128.453v-171.278h128.453zM471.453 291.702v64.228h-128.453v-256.905h128.453v192.685zM300.175 99.022v128.453h-128.453v-128.453h128.453z" />
<glyph unicode="&#xe906;" glyph-name="ticon_6" data-tags="ticon_6" d="M885.029 539.429c-32.914 138.971-142.629 248.686-281.6 281.6-204.8 51.2-413.257-76.8-464.457-281.6s76.8-413.257 281.6-464.457c204.8-51.2 413.257 76.8 464.457 281.6 51.2 0 91.429 40.229 91.429 91.429s-40.229 91.429-91.429 91.429zM424.229 111.543c-153.6 40.229-259.657 179.2-259.657 336.457 0 190.171 157.257 347.429 347.429 347.429 157.257 0 296.229-106.057 336.457-259.657-47.543-14.629-73.143-69.486-58.514-117.029 7.314-25.6 29.257-47.543 58.514-58.514-47.543-186.514-237.714-296.229-424.229-248.686zM877.714 393.143c-29.257 0-54.857 25.6-54.857 54.857s25.6 54.857 54.857 54.857 54.857-25.6 54.857-54.857-25.6-54.857-54.857-54.857zM512 539.429c-51.2 0-91.429-40.229-91.429-91.429s40.229-91.429 91.429-91.429 91.429 40.229 91.429 91.429-40.229 91.429-91.429 91.429zM512 393.143c-29.257 0-54.857 25.6-54.857 54.857s25.6 54.857 54.857 54.857 54.857-25.6 54.857-54.857-25.6-54.857-54.857-54.857z" />
<glyph unicode="&#xe907;" glyph-name="ticon_7" data-tags="ticon_7" d="M91.777 247.586c-21.423-21.423-21.423-56.157 0-77.58v0l142.229-142.229c21.423-21.423 56.157-21.423 77.58 0v0l620.638 620.638c21.423 21.423 21.423 56.157 0 77.58v0l-142.229 142.229c-21.423 21.423-56.157 21.423-77.58 0v0zM117.636 221.726l77.58 77.58 64.65-64.65 25.86 25.86-64.65 64.65 84.045 84.045 100.854-100.854 25.86 25.86-100.854 100.854 84.045 84.045 64.65-64.65 25.86 25.86-64.65 64.65 84.045 84.045 100.854-100.854 25.86 25.86-100.854 100.854 84.045 84.045 64.65-64.65 25.86 25.86-64.65 64.65 77.58 77.58c7.141 7.141 18.719 7.141 25.86 0v0l142.229-142.229c7.141-7.141 7.141-18.719 0-25.86v0l-620.638-620.638c-7.141-7.141-18.719-7.141-25.86 0v0l-142.229 142.229c-7.141 7.141-7.141 18.719 0 25.86v0z" />
<glyph unicode="&#xe908;" glyph-name="ticon_8" data-tags="ticon_8" d="M645.339 288.768l146.286-146.286 25.893 25.893-146.286 146.286zM457.143 192c-171.682 0-310.857 139.175-310.857 310.857s139.175 310.857 310.857 310.857v0c171.682 0 310.857-139.175 310.857-310.857s-139.175-310.857-310.857-310.857v0zM457.143 228.571c151.484 0 274.286 122.802 274.286 274.286s-122.802 274.286-274.286 274.286v0c-151.484 0-274.286-122.802-274.286-274.286s122.802-274.286 274.286-274.286v0zM329.143 484.571h256v36.571h-256zM475.429 374.857v256h-36.571v-256z" />
<glyph unicode="&#xe909;" glyph-name="ticon_9" data-tags="ticon_9" d="M512 594.286c-40.396 0-73.143-32.747-73.143-73.143v0-402.286h-219.429v402.286c0 161.499 131.072 292.571 292.571 292.571s292.571-131.072 292.571-292.571v-402.286h-219.429v402.286c0 40.396-32.747 73.143-73.143 73.143v0zM402.286 521.143c0 60.594 49.121 109.714 109.714 109.714s109.714-49.121 109.714-109.714v0-365.714h146.286v365.714c0 141.312-114.688 256-256 256s-256-114.688-256-256v-365.714h146.286v365.714zM237.714 301.714h182.857v-36.571h-182.857zM603.429 301.714h182.857v-36.571h-182.857z" />
<glyph unicode="&#xe90a;" glyph-name="ticon_10" data-tags="ticon_10" d="M512 777.143c-141.385 0-256-114.615-256-256v0-109.714h146.286v109.714c0 60.594 49.121 109.714 109.714 109.714s109.714-49.121 109.714-109.714v0-109.714h146.286v109.714c0 141.385-114.615 256-256 256v0zM768 374.857h-146.286v-109.714h146.286v109.714zM402.286 374.857h-146.286v-109.714h146.286v109.714zM219.429 521.143c0 161.583 130.989 292.571 292.571 292.571s292.571-130.989 292.571-292.571v0-292.571h-219.429v292.571c0 40.396-32.747 73.143-73.143 73.143s-73.143-32.747-73.143-73.143v0-292.571h-219.429v292.571zM339.858 108.105l-44.69 74.496 31.378 18.798 64.987-108.361-73.143-36.571 44.727-74.496-31.378-18.798-65.024 108.361 73.143 36.571zM697.454 201.399l31.378-18.798-44.727-74.496 73.143-36.571-64.987-108.361-31.378 18.798 44.727 74.496-73.143 36.571 64.987 108.361z" />
<glyph unicode="&#xe90b;" glyph-name="ticon_11" data-tags="ticon_11" d="M512 636.632c-59.53 0-107.789-48.259-107.789-107.789v0-592.842h-323.368v592.842c0 237.999 193.159 431.158 431.158 431.158s431.158-193.159 431.158-431.158v-592.842h-323.368v592.842c0 59.53-48.259 107.789-107.789 107.789v0zM350.316 528.842c0 89.296 72.388 161.684 161.684 161.684s161.684-72.388 161.684-161.684v0-538.947h215.579v538.947c0 208.249-169.014 377.263-377.263 377.263s-377.263-169.014-377.263-377.263v-538.947h215.579v538.947zM107.789 205.474h269.474v-53.895h-269.474zM646.737 205.474h269.474v-53.895h-269.474z" />
<glyph unicode="&#xe90c;" glyph-name="ticon_12" data-tags="ticon_12" d="M292.571 722.286c0 10.24 8.046 18.286 18.286 18.286h201.143v-585.143h-73.143v-36.571h182.857v36.571h-73.143v585.143h201.143c10.24 0 18.286-8.046 18.286-18.286v-91.429h36.571v91.429c0 30.354-24.503 54.857-54.857 54.857h-438.857c-30.354 0-54.857-24.503-54.857-54.857v-91.429h36.571v91.429z" />
<glyph unicode="&#xe90d;" glyph-name="ticon_13" data-tags="ticon_13" d="M310.857 740.571c-10.099 0-18.286-8.187-18.286-18.286v0-91.429h-36.571v91.429c0 30.354 24.503 54.857 54.857 54.857h438.857c30.354 0 54.857-24.503 54.857-54.857v-91.429h-36.571v91.429c0 10.099-8.187 18.286-18.286 18.286v0h-201.143v-585.143h73.143v-36.571h-182.857v36.571h73.143v585.143h-201.143zM914.286 320c0-10.099-8.187-18.286-18.286-18.286s-18.286 8.187-18.286 18.286v0c0 10.099 8.187 18.286 18.286 18.286s18.286-8.187 18.286-18.286v0zM914.286 268.434c21.489 7.758 36.571 27.978 36.571 51.72 0 30.297-24.56 54.857-54.857 54.857s-54.857-24.56-54.857-54.857c0-23.742 15.083-43.962 36.189-51.599l0.382-0.121v-39.863h-73.143v-36.571h73.143v-143.726c-15.258 3.656-28.693 9.58-40.708 17.485l0.48-0.296c-19.749 13.531-32.914 31.451-32.914 53.394h-36.571c0-38.766 23.406-66.56 49.371-83.749 25.6-16.823 56.32-25.966 78.629-25.966 21.943 0 53.029 9.143 78.629 25.966 28.936 17.395 48.263 48.198 49.368 83.593l0.004 0.156h-36.571c0-21.943-13.166-40.229-32.914-53.394-13.166-8.411-27.794-14.629-40.229-17.189v143.726h73.143v36.571h-73.143v39.863z" />
<glyph unicode="&#xe90e;" glyph-name="ticon_14" data-tags="ticon_14" d="M182.857 850.286v-475.429h621.714v475.429h-621.714zM475.429 338.286h-292.571c-20.198 0-36.571 16.374-36.571 36.571v0 475.429c0 20.198 16.374 36.571 36.571 36.571v0h621.714c20.198 0 36.571-16.374 36.571-36.571v0-475.429c0-20.198-16.374-36.571-36.571-36.571v0h-292.571v-148.114c42.031-8.804 73.143-45.56 73.143-89.581 0-50.495-40.934-91.429-91.429-91.429s-91.429 40.934-91.429 91.429c0 44.022 31.112 80.777 72.548 89.477l0.595 0.105v148.114zM493.714 45.714c30.297 0 54.857 24.56 54.857 54.857s-24.56 54.857-54.857 54.857v0c-30.297 0-54.857-24.56-54.857-54.857s24.56-54.857 54.857-54.857v0zM512 777.143h109.714c20.198 0 36.571-16.374 36.571-36.571v0-73.143h-36.571v73.143h-109.714v-256h73.143v-36.571h-182.857v36.571h73.143v256h-109.714v-73.143h-36.571v73.143c0 20.198 16.374 36.571 36.571 36.571v0h146.286z" />
<glyph unicode="&#xe90f;" glyph-name="ticon_15" data-tags="ticon_15" d="M804.571 850.286v-475.429h-621.714v475.429h621.714zM182.857 338.286h292.571v-148.114c-42.031-8.804-73.143-45.56-73.143-89.581 0-50.495 40.934-91.429 91.429-91.429s91.429 40.934 91.429 91.429c0 44.022-31.112 80.777-72.548 89.477l-0.595 0.105v148.114h292.571c20.198 0 36.571 16.374 36.571 36.571v0 475.429c0 20.198-16.374 36.571-36.571 36.571v0h-621.714c-20.198 0-36.571-16.374-36.571-36.571v0-475.429c0-20.198 16.374-36.571 36.571-36.571v0zM548.571 100.571c0-30.297-24.56-54.857-54.857-54.857s-54.857 24.56-54.857 54.857v0c0 30.297 24.56 54.857 54.857 54.857s54.857-24.56 54.857-54.857v0zM475.429 813.714h36.571v-36.571h18.286c50.495 0 91.429-40.934 91.429-91.429v0-18.286h-36.571v18.286c0 30.354-24.503 54.857-54.857 54.857h-18.286v-109.714h18.286c50.495 0 91.429-40.934 91.429-91.429s-40.934-91.429-91.429-91.429v0h-18.286v-36.571h-36.571v36.571h-18.286c-50.495 0-91.429 40.934-91.429 91.429v0 18.286h36.571v-18.286c0-30.354 24.503-54.857 54.857-54.857h18.286v109.714h-18.286c-50.495 0-91.429 40.934-91.429 91.429s40.934 91.429 91.429 91.429v0h18.286v36.571zM475.429 740.571h-18.286c-30.297 0-54.857-24.56-54.857-54.857s24.56-54.857 54.857-54.857v0h18.286v109.714zM512 594.286v-109.714h18.286c30.297 0 54.857 24.56 54.857 54.857s-24.56 54.857-54.857 54.857v0h-18.286z" />
<glyph unicode="&#xe910;" glyph-name="ticon_16" data-tags="ticon_16" d="M512 850.286c-164.571-3.657-296.229-138.971-292.571-303.543 0-153.6 142.629-321.829 259.657-460.8l10.971-10.971 21.943-29.257 25.6 29.257 10.971 10.971c117.029 138.971 259.657 310.857 259.657 460.8-3.657 168.229-135.314 303.543-296.229 303.543zM519.314 111.543l-7.314-7.314-7.314 7.314c-54.857 62.171-106.057 131.657-153.6 197.486-58.514 87.771-95.086 168.229-95.086 237.714-3.657 146.286 113.371 263.314 256 266.971 138.971 0 256-117.029 256-266.971 0-73.143-36.571-153.6-95.086-237.714-47.543-69.486-98.743-135.314-153.6-197.486zM512 704c-80.457 0-146.286-65.829-146.286-146.286s65.829-146.286 146.286-146.286 146.286 65.829 146.286 146.286-65.829 146.286-146.286 146.286zM512 448c-62.171 0-109.714 47.543-109.714 109.714s47.543 109.714 109.714 109.714 109.714-47.543 109.714-109.714-47.543-109.714-109.714-109.714z" />
<glyph unicode="&#xe911;" glyph-name="ticon_17" data-tags="ticon_17" d="M146.286 777.143h731.429c20.198 0 36.571-16.374 36.571-36.571v-621.714c0-20.198-16.374-36.571-36.571-36.571h-731.429c-20.198 0-36.571 16.374-36.571 36.571v621.714c0 20.198 16.374 36.571 36.571 36.571zM146.286 740.571v-182.857h182.857v182.857h-182.857zM146.286 301.714v-182.857h182.857v182.857h-182.857zM365.714 301.714v-182.857h512v182.857h-512zM877.714 338.286v182.857h-512v-182.857h512zM329.143 338.286v182.857h-182.857v-182.857h182.857zM365.714 557.714h512v182.857h-512v-182.857z" />
<glyph unicode="&#xe912;" glyph-name="ticon_18" data-tags="ticon_18" d="M219.429 170.569l131.145 131.145h490.313c0.146 0 0.256 438.601 0.256 438.601 0 0.256-621.714 0.256-621.714 0.256v-570.002zM182.857 82.286v658.469c0 20.078 16.494 36.389 36.389 36.389h622.080c20.078 0 36.389-16.457 36.389-36.827v-438.345c0-20.334-16.457-36.827-36.827-36.827h-475.173l-182.857-182.857z" />
<glyph unicode="&#xe913;" glyph-name="ticon_19" data-tags="ticon_19" d="M438.857 667.429c-121.187 0-219.429-98.242-219.429-219.429v-219.429h438.857c121.187 0 219.429 98.242 219.429 219.429s-98.242 219.429-219.429 219.429h-219.429zM182.857 448c0 141.385 114.615 256 256 256h219.429c141.385 0 256-114.615 256-256s-114.615-256-256-256h-438.857c-20.198 0-36.571 16.373-36.571 36.571v219.429z" />
<glyph unicode="&#xe914;" glyph-name="ticon_20" data-tags="ticon_20" d="M255.817 777.143c0.293 0 0.183-566.857 0.183-566.857h-36.571v566.601c0 20.334 16.494 36.827 36.389 36.827h622.080c20.078 0 36.389-16.457 36.389-36.827v-438.345c0-20.334-16.457-36.827-36.827-36.827h-475.173l-113.518-113.518-25.856 25.856 124.233 124.233h490.313c0.146 0 0.256 438.601 0.256 438.601 0 0.256-621.897 0.256-621.897 0.256zM237.714 82.286c30.281 0 54.857 24.576 54.857 54.857s-24.576 54.857-54.857 54.857-54.857-24.576-54.857-54.857 24.576-54.857 54.857-54.857zM237.714 45.714c-50.505 0-91.429 40.923-91.429 91.429s40.923 91.429 91.429 91.429 91.429-40.923 91.429-91.429-40.923-91.429-91.429-91.429z" />
<glyph unicode="&#xe915;" glyph-name="ticon_21" data-tags="ticon_21" d="M529.554 760.32l35.876-110.94c2.343-7.272 9.116-12.555 17.153-12.671h116.297c10.099 0 18.286-8.187 18.286-18.286 0-5.962-2.853-11.257-7.314-14.629l-94.039-68.424c-4.518-3.329-7.449-8.687-7.449-14.73 0-2.044 0.335-4.009 0.916-5.715l35.84-110.811c5.486-16.823-13.531-30.72-28.16-20.48l-94.299 68.352c-3.001 2.157-6.682 3.427-10.66 3.427s-7.659-1.27-10.606-3.39l-94.304-68.354c-3.034-2.237-6.783-3.559-10.842-3.559-10.099 0-18.286 8.187-18.286 18.286 0 2.045 0.336 4.011 0.917 5.718l35.802 110.682c0.618 1.835 0.954 3.8 0.954 5.844 0 6.042-2.931 11.4-7.499 14.765l-94.4 68.422c-4.415 3.338-7.268 8.634-7.268 14.595 0 10.099 8.187 18.286 18.286 18.286h116.677c8.023 0.116 14.796 5.399 17.175 12.8l35.873 110.94c2.256 7.54 9.247 13.036 17.521 13.036s15.265-5.496 17.554-13.166zM512 695.223l-18.286-57.051c-7.33-22.254-27.929-38.034-52.214-38.034-0.029 0-0.059 0-0.088 0h-60.338l48.64-35.109c19.383-14.263 27.429-38.766 20.114-61.44l-18.651-57.417 48.64 35.474c8.913 6.52 20.091 10.432 32.183 10.432s23.27-3.912 32.338-10.54l-0.155 0.108 48.64-35.474-18.286 57.417c-7.314 22.674 0.366 47.543 19.749 61.44l48.64 35.109h-60.343c-24.171 0.129-44.632 15.87-51.821 37.647l-0.111 0.388-18.651 57.051zM548.571 193.829v-221.257h-36.571v219.429h-0.002c-201.956 0.026-365.666 163.752-365.666 365.714 0 201.978 163.736 365.714 365.714 365.714s365.714-163.736 365.714-365.714c0-189.115-143.544-344.703-329.189-363.886zM512 228.571c181.781 0 329.143 147.362 329.143 329.143s-147.362 329.143-329.143 329.143v0c-181.781 0-329.143-147.362-329.143-329.143s147.362-329.143 329.143-329.143v0z" />
<glyph unicode="&#xe916;" glyph-name="ticon_22" data-tags="ticon_22" d="M269.97 374.857h529.664l-152.393 182.857 152.393 182.857h-580.206v-466.798l50.542 101.083zM182.857 118.857v658.286h694.857l-182.857-219.429 182.857-219.429h-585.143l-109.714-219.429z" />
<glyph unicode="&#xe917;" glyph-name="ticon_23" data-tags="ticon_23" d="M146.042 911.238c0.39 0 0.244-755.81 0.244-755.81h-48.762v755.468c0 27.112 21.992 49.103 48.518 49.103h829.44c26.77 0 48.518-21.943 48.518-49.103v-584.46c0-27.112-21.943-49.103-49.103-49.103h-633.563l-151.357-151.357-34.475 34.475 165.644 165.644h653.751c0.195 0 0.341 584.802 0.341 584.802 0 0.341-829.196 0.341-829.196 0.341zM121.905-15.238c40.375 0 73.143 32.768 73.143 73.143s-32.768 73.143-73.143 73.143-73.143-32.768-73.143-73.143 32.768-73.143 73.143-73.143zM121.905-64c-67.34 0-121.905 54.565-121.905 121.905s54.565 121.905 121.905 121.905 121.905-54.565 121.905-121.905-54.565-121.905-121.905-121.905z" />
<glyph unicode="&#xe918;" glyph-name="ticon_24" data-tags="ticon_24" d="M530.856 784.345l38.636-119.474c2.523-7.831 9.817-13.52 18.472-13.645h125.243c10.876 0 19.692-8.817 19.692-19.692 0-6.42-3.073-12.123-7.877-15.754l-101.272-73.687c-4.865-3.585-8.021-9.356-8.021-15.863 0-2.201 0.361-4.317 0.986-6.154l38.597-119.335c5.908-18.117-14.572-33.083-30.326-22.055l-101.553 73.609c-3.232 2.323-7.196 3.691-11.48 3.691s-8.248-1.368-11.422-3.651l-101.558-73.611c-3.267-2.409-7.305-3.833-11.676-3.833-10.876 0-19.692 8.817-19.692 19.692 0 2.202 0.361 4.32 0.988 6.158l38.556 119.196c0.666 1.976 1.027 4.093 1.027 6.293 0 6.507-3.156 12.277-8.076 15.901l-101.662 73.685c-4.755 3.595-7.827 9.298-7.827 15.718 0 10.876 8.817 19.692 19.692 19.692h125.652c8.641 0.125 15.934 5.814 18.496 13.784l38.633 119.474c2.429 8.12 9.958 14.039 18.869 14.039s16.439-5.919 18.905-14.178zM511.951 714.24l-19.692-61.44c-7.893-23.966-30.077-40.96-56.23-40.96-0.032 0-0.063 0-0.094 0h-64.98l52.382-37.809c20.874-15.36 29.538-41.748 21.662-66.166l-20.086-61.834 52.382 38.203c9.598 7.021 21.636 11.235 34.658 11.235s25.060-4.213 34.826-11.351l-0.167 0.116 52.382-38.203-19.692 61.834c-7.877 24.418 0.394 51.2 21.268 66.166l52.382 37.809h-64.985c-26.030 0.138-48.065 17.090-55.807 40.543l-0.119 0.417-20.086 61.44zM551.336 174.277v-238.277h-39.385v236.308h-0.002c-217.492 0.028-393.795 176.348-393.795 393.846 0 217.515 176.331 393.846 393.846 393.846s393.846-176.331 393.846-393.846c0-203.662-154.586-371.218-354.511-391.877zM511.951 211.692c195.764 0 354.462 158.698 354.462 354.462s-158.698 354.462-354.462 354.462v0c-195.764 0-354.462-158.698-354.462-354.462s158.698-354.462 354.462-354.462v0z" />
<glyph unicode="&#xe919;" glyph-name="ticon_25" data-tags="ticon_25" d="M0 609.6l511.488-417.6 512.512 423.040-76.352 88.96-474.496-391.808 75.968 0.128-473.216 386.56z" />
<glyph unicode="&#xe91a;" glyph-name="ticon_26" data-tags="ticon_26" d="M694.857 740.571h-36.571v-256h-109.714v-36.571h109.714v-292.571h36.571v109.714h109.714v36.571h-109.714v438.857zM402.286 704h-36.571v-475.429h-109.714v-36.571h109.714v-73.143h36.571v475.429h109.714v36.571h-109.714v73.143z" />
<glyph unicode="&#xe91b;" glyph-name="ticon_27" data-tags="ticon_27" d="M621.714 557.714v-219.429h109.714v219.429h-109.714zM603.429 594.286h146.286c10.099 0 18.286-8.187 18.286-18.286v0-256c0-10.099-8.187-18.286-18.286-18.286v0h-146.286c-10.099 0-18.286 8.187-18.286 18.286v0 256c0 10.099 8.187 18.286 18.286 18.286v0zM658.286 704h36.571v-128h-36.571zM658.286 320h36.571v-128h-36.571zM329.143 667.429v-438.857h109.714v438.857h-109.714zM310.857 704h146.286c10.099 0 18.286-8.187 18.286-18.286v0-475.429c0-10.099-8.187-18.286-18.286-18.286v0h-146.286c-10.099 0-18.286 8.187-18.286 18.286v0 475.429c0 10.099 8.187 18.286 18.286 18.286v0zM365.714 813.714h36.571v-128h-36.571zM365.714 210.286h36.571v-128h-36.571z" />
<glyph unicode="&#xe91c;" glyph-name="ticon_28" data-tags="ticon_28" d="M927.086 764.343l-25.6 25.6-334.629-334.263-170.057 169.691-12.8 13.166-12.8-13.166-310.857-310.857 25.6-25.6 298.057 297.691 170.057-169.691 12.8-13.166 12.8 13.166 347.429 347.429zM73.143 192v-36.571h36.571v36.571h-36.571zM146.286 228.571v36.571h36.571v36.571h36.571v36.571h36.571v36.571h36.571v36.571h36.571v36.571h36.571v36.571h36.571v-36.571h36.571v-36.571h36.571v-36.571h36.571v-36.571h36.571v-36.571h36.571v36.571h36.571v36.571h36.571v36.571h36.571v36.571h36.571v36.571h36.571v36.571h36.571v36.571h36.571v36.571h36.571v36.571h36.571v-36.571h-36.571v-36.571h36.571v-36.571h-36.571v-36.571h36.571v-36.571h-36.571v-36.571h36.571v-36.571h-36.571v-36.571h36.571v-36.571h-36.571v-36.571h36.571v-36.571h-36.571v-36.571h36.571v-36.571h-36.571v36.571h-36.571v-36.571h-36.571v36.571h-36.571v-36.571h-36.571v36.571h-36.571v-36.571h-36.571v36.571h-36.571v-36.571h-36.571v36.571h-36.571v-36.571h-36.571v36.571h-36.571v-36.571h-36.571v36.571h-36.571v-36.571h-36.571v36.571h-36.571v-36.571h-36.571v36.571h-36.571v-36.571h-36.571v36.571h-36.571v-36.571h-36.571v36.571h-36.571v36.571h36.571zM182.857 228.571h-36.571v-36.571h36.571v36.571zM219.429 228.571v36.571h-36.571v-36.571h36.571zM256 228.571h-36.571v-36.571h36.571v36.571zM256 265.143h-36.571v36.571h36.571v-36.571zM292.571 265.143h-36.571v-36.571h36.571v-36.571h36.571v36.571h36.571v-36.571h36.571v36.571h36.571v-36.571h36.571v36.571h36.571v-36.571h36.571v36.571h36.571v-36.571h36.571v36.571h36.571v-36.571h36.571v36.571h36.571v-36.571h36.571v36.571h36.571v-36.571h36.571v36.571h36.571v36.571h-36.571v36.571h36.571v36.571h-36.571v36.571h36.571v36.571h-36.571v36.571h36.571v36.571h-36.571v36.571h36.571v36.571h-36.571v-36.571h-36.571v-36.571h-36.571v-36.571h-36.571v-36.571h-36.571v-36.571h-36.571v-36.571h-36.571v-36.571h-36.571v-36.571h-36.571v36.571h-36.571v36.571h-36.571v36.571h-36.571v36.571h-36.571v36.571h-36.571v-36.571h-36.571v-36.571h-36.571v-36.571h-36.571v-36.571h36.571v-36.571zM329.143 265.143h-36.571v-36.571h36.571v36.571zM329.143 301.714v36.571h-36.571v-36.571h36.571zM365.714 301.714v36.571h-36.571v36.571h36.571v36.571h36.571v-36.571h36.571v-36.571h36.571v-36.571h36.571v-36.571h36.571v-36.571h-36.571v36.571h-36.571v-36.571h-36.571v36.571h-36.571v-36.571h-36.571v36.571h-36.571v36.571h36.571zM402.286 301.714v-36.571h-36.571v36.571h36.571zM402.286 338.286v36.571h-36.571v-36.571h36.571zM402.286 338.286v-36.571h36.571v-36.571h36.571v36.571h-36.571v36.571h-36.571zM621.714 265.143h36.571v36.571h-36.571v-36.571zM694.857 265.143h-36.571v-36.571h36.571v36.571zM694.857 301.714v36.571h-36.571v-36.571h36.571zM731.429 301.714h-36.571v-36.571h36.571v-36.571h36.571v36.571h36.571v-36.571h36.571v36.571h-36.571v36.571h36.571v36.571h-36.571v36.571h36.571v36.571h-36.571v36.571h36.571v36.571h-36.571v-36.571h-36.571v-36.571h-36.571v-36.571h-36.571v-36.571h36.571v-36.571zM768 301.714h-36.571v-36.571h36.571v36.571zM768 338.286h36.571v-36.571h-36.571v36.571zM768 374.857h36.571v36.571h-36.571v-36.571zM768 374.857v-36.571h-36.571v36.571h36.571zM621.714 265.143h-36.571v-36.571h36.571v36.571z" />
<glyph unicode="&#xe91d;" glyph-name="ticon_29" data-tags="ticon_29" d="M493.714 740.571c-171.682 0-310.857-139.175-310.857-310.857s139.175-310.857 310.857-310.857v0c171.682 0 310.857 139.175 310.857 310.857s-139.175 310.857-310.857 310.857v0zM146.286 429.714c0 191.88 155.549 347.429 347.429 347.429s347.429-155.549 347.429-347.429v0c0-191.88-155.549-347.429-347.429-347.429s-347.429 155.549-347.429 347.429v0zM329.143 448h146.286v146.286h36.571v-146.286h146.286v-36.571h-146.286v-146.286h-36.571v146.286h-146.286v36.571z" />
<glyph unicode="&#xe91e;" glyph-name="ticon_30" data-tags="ticon_30" d="M406.601 740.571c-7.112 0-13.276-4.061-16.299-9.99l-0.048-0.104-31.525-63.049h-157.586c-30.297 0-54.857-24.56-54.857-54.857v0-365.714c0-30.297 24.56-54.857 54.857-54.857v0h585.143c30.297 0 54.857 24.56 54.857 54.857v0 365.714c0 30.297-24.56 54.857-54.857 54.857v0h-157.586l-31.525 63.049c-3.072 6.033-9.235 10.093-16.347 10.094h-174.226zM357.522 746.789c9.201 18.139 27.714 30.354 49.079 30.354h174.226c21.365-0.001 39.877-12.215 48.935-30.042l0.144-0.312 21.394-42.789h134.985c50.495 0 91.429-40.934 91.429-91.429v0-365.714c0-50.495-40.934-91.429-91.429-91.429v0h-585.143c-50.495 0-91.429 40.934-91.429 91.429v0 365.714c0 50.495 40.934 91.429 91.429 91.429v0h134.985l21.394 42.789zM493.714 301.714v0c-70.692 0-128 57.308-128 128s57.308 128 128 128v0c70.692 0 128-57.308 128-128s-57.308-128-128-128zM493.714 265.143c90.89 0 164.571 73.681 164.571 164.571s-73.681 164.571-164.571 164.571v0c-90.89 0-164.571-73.681-164.571-164.571s73.681-164.571 164.571-164.571v0z" />
<glyph unicode="&#xe91f;" glyph-name="ticon_31" data-tags="ticon_31" d="M65.426 118.857l31.415 31.232 8.082 8.338c6.583 6.949 13.897 14.958 21.833 23.954 22.638 25.746 45.275 54.053 66.377 84.041 35.913 51.054 63.561 101.522 79.616 149.248 45.129 134.107 217.856 172.471 326.327 46.19 118.894-138.423-1.353-343.040-196.718-343.040h-336.859zM402.286 155.429c166.181 0 265.947 169.765 168.997 282.624-89.6 104.338-227.657 73.691-263.899-34.048-17.335-51.493-46.555-104.923-84.37-158.61-21.906-31.159-45.385-60.453-68.827-87.15l-2.487-2.853h250.624zM664.942 740.498l-51.895-47.031c-37.705-34.194-39.314-91.465-3.511-127.269l68.645-68.645c35.694-35.694 93.367-34.889 128.475 1.646l206.629 214.821-26.368 25.344-206.629-214.821c-20.992-21.797-55.113-22.272-76.288-1.134l-68.645 68.645c-20.992 20.992-20.041 54.126 2.231 74.313l51.895 47.031-24.576 27.099z" />
<glyph unicode="&#xe920;" glyph-name="ticon_32" data-tags="ticon_32" d="M548.946 919.040l-271.178-275.060c-4.436-4.5-7.772-9.966-9.744-15.969l-57.662-175.461c-9.722-29.581-2.131-62.198 19.608-84.251l2.791-2.83-232.761-236.093 332.88-128.070 129.452 131.305 2.793-2.83c21.737-22.049 53.891-29.749 83.059-19.89l172.765 58.413c6.062 2.052 11.559 5.489 16.048 10.047l274.354 278.282-28.897 28.897-265.040-268.833-401.753 407.504 262.186 265.937-28.901 28.9zM248.862 439.534l47.867 145.657 382.224-387.694-143.602-48.554c-14.582-4.927-30.663-1.077-41.529 9.945l-235.156 238.522c-10.87 11.022-14.665 27.333-9.804 42.123zM258.269 333.128l172.18-174.641-107.71-109.253-249.66 96.055 185.19 187.838z" />
<glyph unicode="&#xe921;" glyph-name="ticon_33" data-tags="ticon_33" d="M818.469 812.251h1.463c3.354 0.845 7.204 1.33 11.168 1.33 12.865 0 24.536-5.11 33.096-13.411l-0.012 0.012c13.531-13.166 15.36-30.72 12.069-43.886v-1.463l-89.6-304.274c-5.12-20.114-20.846-33.28-36.571-38.034-16.457-5.12-43.886-2.56-56.686 23.040l-12.434 23.406-460.8-366.811c-10.971-9.143-24.503-11.337-36.571-9.143-19.069 4.197-33.666 19.408-36.898 38.486l-0.039 0.28c-1.829 11.337 0.731 25.234 10.606 36.206l0.731 0.731c4.139 4.842 9.763 11.626 15.318 18.468l1.87 2.378c-28.872-38.464 30.987 34.732 90.686 108.064l92.172 116.851 135.314 167.131 33.28 41.326-23.040 12.069c-25.6 13.166-28.16 40.229-23.406 56.686 4.754 16.091 18.286 31.451 37.669 36.571l300.617 93.989zM527.726 683.154c-12.8-2.926-18.286-20.48-7.314-25.6l62.537-33.28-23.406-29.257c-1022.092-1286.259-1144.69-1436.231-1267.355-1586.146l892.498 1124.614c-6.217-6.949 5.486-19.017 12.069-12.8l495.543 394.24 33.646-62.171c5.12-10.971 22.674-5.851 25.6 7.314l89.234 303.909c1.829 8.777-3.657 14.629-12.8 12.8l-299.886-93.623z" />
<glyph unicode="&#xe922;" glyph-name="ticon_34" data-tags="ticon_34" d="M268.946 179.054l512 512-25.856 25.856-512-512zM768 704l-292.571-109.714 182.857-182.857zM822.857 704c30.281 0 54.857 24.576 54.857 54.857s-24.576 54.857-54.857 54.857-54.857-24.576-54.857-54.857 24.576-54.857 54.857-54.857zM822.857 667.429c-50.505 0-91.429 40.923-91.429 91.429s40.923 91.429 91.429 91.429 91.429-40.923 91.429-91.429-40.923-91.429-91.429-91.429zM201.143 82.286c30.281 0 54.857 24.576 54.857 54.857s-24.576 54.857-54.857 54.857-54.857-24.576-54.857-54.857 24.576-54.857 54.857-54.857zM201.143 45.714c-50.505 0-91.429 40.923-91.429 91.429s40.923 91.429 91.429 91.429 91.429-40.923 91.429-91.429-40.923-91.429-91.429-91.429z" />
<glyph unicode="&#xe923;" glyph-name="ticon_35" data-tags="ticon_35" d="M402.286 374.857v-219.429h219.429v219.429h177.92l-287.634 345.161-287.634-345.161h177.92zM658.286 118.857h-292.571v219.429h-219.429l365.714 438.857 365.714-438.857h-219.429v-219.429z" />
<glyph unicode="&#xe924;" glyph-name="ticon_36" data-tags="ticon_36" d="M621.714 521.143v219.429h-219.429v-219.429h-177.92l287.634-345.161 287.634 345.161h-177.92zM365.714 777.143h292.571v-219.429h219.429l-365.714-438.857-365.714 438.857h219.429v219.429z" />
<glyph unicode="&#xe925;" glyph-name="ticon_37" data-tags="ticon_37" d="M274.286 740.571h475.429v36.571h-475.429zM274.286 118.857h475.429v36.571h-475.429zM182.857 685.714v-475.429h36.571v475.429zM804.571 685.714v-475.429h36.571v475.429zM201.143 704c30.281 0 54.857 24.576 54.857 54.857s-24.576 54.857-54.857 54.857-54.857-24.576-54.857-54.857 24.576-54.857 54.857-54.857zM201.143 667.429c-50.505 0-91.429 40.923-91.429 91.429s40.923 91.429 91.429 91.429 91.429-40.923 91.429-91.429-40.923-91.429-91.429-91.429zM822.857 704c30.281 0 54.857 24.576 54.857 54.857s-24.576 54.857-54.857 54.857-54.857-24.576-54.857-54.857 24.576-54.857 54.857-54.857zM822.857 667.429c-50.505 0-91.429 40.923-91.429 91.429s40.923 91.429 91.429 91.429 91.429-40.923 91.429-91.429-40.923-91.429-91.429-91.429zM822.857 82.286c30.281 0 54.857 24.576 54.857 54.857s-24.576 54.857-54.857 54.857-54.857-24.576-54.857-54.857 24.576-54.857 54.857-54.857zM822.857 45.714c-50.505 0-91.429 40.923-91.429 91.429s40.923 91.429 91.429 91.429 91.429-40.923 91.429-91.429-40.923-91.429-91.429-91.429zM201.143 82.286c30.281 0 54.857 24.576 54.857 54.857s-24.576 54.857-54.857 54.857-54.857-24.576-54.857-54.857 24.576-54.857 54.857-54.857zM201.143 45.714c-50.505 0-91.429 40.923-91.429 91.429s40.923 91.429 91.429 91.429 91.429-40.923 91.429-91.429-40.923-91.429-91.429-91.429z" />
<glyph unicode="&#xe926;" glyph-name="ticon_38" data-tags="ticon_38" d="M539.173 830.171l-153.893-153.893 25.856-25.856 153.893 153.893zM281.966 572.965l-153.125-153.125 25.856-25.856 153.125 153.125zM129.317 292.791l225.682-225.682 25.856 25.856-225.682 225.682zM483.913 64.914l154.331 154.331-25.856 25.856-154.331-154.331zM739.255 320.219l154.222 154.222-25.856 25.856-154.222-154.222zM893.184 604.672l-227.401 227.401-25.856-25.856 227.401-227.401zM91.429 301.714c30.281 0 54.857 24.576 54.857 54.857s-24.576 54.857-54.857 54.857-54.857-24.576-54.857-54.857 24.576-54.857 54.857-54.857zM91.429 265.143c-50.505 0-91.429 40.923-91.429 91.429s40.923 91.429 91.429 91.429 91.429-40.923 91.429-91.429-40.923-91.429-91.429-91.429zM347.429 557.714c30.281 0 54.857 24.576 54.857 54.857s-24.576 54.857-54.857 54.857-54.857-24.576-54.857-54.857 24.576-54.857 54.857-54.857zM347.429 521.143c-50.505 0-91.429 40.923-91.429 91.429s40.923 91.429 91.429 91.429 91.429-40.923 91.429-91.429-40.923-91.429-91.429-91.429zM603.429 813.714c30.281 0 54.857 24.576 54.857 54.857s-24.576 54.857-54.857 54.857-54.857-24.576-54.857-54.857 24.576-54.857 54.857-54.857zM603.429 777.143c-50.505 0-91.429 40.923-91.429 91.429s40.923 91.429 91.429 91.429 91.429-40.923 91.429-91.429-40.923-91.429-91.429-91.429zM420.571-27.429c30.281 0 54.857 24.576 54.857 54.857s-24.576 54.857-54.857 54.857-54.857-24.576-54.857-54.857 24.576-54.857 54.857-54.857zM420.571-64c-50.505 0-91.429 40.923-91.429 91.429s40.923 91.429 91.429 91.429 91.429-40.923 91.429-91.429-40.923-91.429-91.429-91.429zM676.571 228.571c30.281 0 54.857 24.576 54.857 54.857s-24.576 54.857-54.857 54.857-54.857-24.576-54.857-54.857 24.576-54.857 54.857-54.857zM676.571 192c-50.505 0-91.429 40.923-91.429 91.429s40.923 91.429 91.429 91.429 91.429-40.923 91.429-91.429-40.923-91.429-91.429-91.429zM932.571 484.571c30.281 0 54.857 24.576 54.857 54.857s-24.576 54.857-54.857 54.857-54.857-24.576-54.857-54.857 24.576-54.857 54.857-54.857zM932.571 448c-50.505 0-91.429 40.923-91.429 91.429s40.923 91.429 91.429 91.429 91.429-40.923 91.429-91.429-40.923-91.429-91.429-91.429z" />
<glyph unicode="&#xe927;" glyph-name="ticon_39" data-tags="ticon_39" d="M402.286 576c0-30.297-24.56-54.857-54.857-54.857s-54.857 24.56-54.857 54.857v0c0 30.297 24.56 54.857 54.857 54.857s54.857-24.56 54.857-54.857v0zM548.571 320c0 30.297 24.56 54.857 54.857 54.857s54.857-24.56 54.857-54.857v0c0-30.297-24.56-54.857-54.857-54.857s-54.857 24.56-54.857 54.857v0zM950.857 641.829v-157.257h36.571v219.429h-219.429v-36.571h157.257l-271.36-270.994c-14.185 9.563-31.661 15.265-50.469 15.265s-36.284-5.702-50.794-15.471l0.325 0.206-129.097 129.097c9.51 14.194 15.177 31.658 15.177 50.447 0 50.495-40.934 91.429-91.429 91.429s-91.429-40.934-91.429-91.429c0-18.789 5.667-36.254 15.386-50.778l-0.209 0.331-234.789-234.423 25.6-25.966 234.789 234.423c14.185-9.563 31.661-15.265 50.469-15.265s36.284 5.702 50.794 15.471l-0.325-0.206 129.097-129.097c-9.51-14.194-15.177-31.658-15.177-50.447 0-50.495 40.934-91.429 91.429-91.429s91.429 40.934 91.429 91.429c0 18.789-5.667 36.254-15.386 50.778l0.209-0.331z" />
<glyph unicode="&#xe928;" glyph-name="ticon_204" data-tags="ticon_204" d="M621.714 557.714v-219.429h109.714v219.429h-109.714zM603.429 594.286h146.286c10.099 0 18.286-8.187 18.286-18.286v0-256c0-10.099-8.187-18.286-18.286-18.286v0h-146.286c-10.099 0-18.286 8.187-18.286 18.286v0 256c0 10.099 8.187 18.286 18.286 18.286v0zM658.286 704h36.571v-128h-36.571zM658.286 320h36.571v-128h-36.571zM329.143 667.429v-402.286h109.714v402.286h-109.714zM310.857 704h146.286c10.099 0 18.286-8.187 18.286-18.286v0-438.857c0-10.099-8.187-18.286-18.286-18.286v0h-146.286c-10.099 0-18.286 8.187-18.286 18.286v0 438.857c0 10.099 8.187 18.286 18.286 18.286v0zM365.714 813.714h36.571v-182.857h-36.571zM365.714 301.714h36.571v-182.857h-36.571zM310.857 630.857h54.857v-36.571h-54.857zM402.286 630.857h54.857v-36.571h-54.857zM365.714 594.286h36.571v-36.571h-36.571zM310.857 557.714h54.857v-36.571h-54.857zM402.286 557.714h54.857v-36.571h-54.857zM365.714 521.143h36.571v-36.571h-36.571zM310.857 484.571h54.857v-36.571h-54.857zM402.286 484.571h54.857v-36.571h-54.857zM365.714 448h36.571v-36.571h-36.571zM310.857 411.429h54.857v-36.571h-54.857zM402.286 411.429h54.857v-36.571h-54.857zM365.714 374.857h36.571v-36.571h-36.571zM310.857 338.286h54.857v-36.571h-54.857zM402.286 338.286h54.857v-36.571h-54.857z" />
<glyph unicode="&#xe929;" glyph-name="ticon_41" data-tags="ticon_41" d="M454.766 735.598c-161.317-21.541-291.95-111.141-332.251-229.303l34.597-11.813c35.365 103.717 153.929 185.015 302.482 204.873l-4.827 36.242zM122.405 353.499c40.265-118.601 171.483-208.494 333.422-229.778l4.754 36.242c-149.175 19.639-268.251 101.193-303.579 205.275l-34.633-11.739zM605.403 123.794c160.219 21.285 290.377 109.714 331.739 226.743l-34.487 12.178c-36.352-102.802-154.478-183.077-302.080-202.679l4.827-36.242zM937.911 506.734c-40.485 117.943-170.971 207.287-331.995 228.827l-4.864-36.242c148.334-19.822 266.715-100.937 302.263-204.471l34.597 11.886zM530.286 667.429c30.281 0 54.857 24.576 54.857 54.857s-24.576 54.857-54.857 54.857-54.857-24.576-54.857-54.857 24.576-54.857 54.857-54.857zM530.286 630.857c-50.505 0-91.429 40.923-91.429 91.429s40.923 91.429 91.429 91.429 91.429-40.923 91.429-91.429-40.923-91.429-91.429-91.429zM530.286 82.286c30.281 0 54.857 24.576 54.857 54.857s-24.576 54.857-54.857 54.857-54.857-24.576-54.857-54.857 24.576-54.857 54.857-54.857zM530.286 45.714c-50.505 0-91.429 40.923-91.429 91.429s40.923 91.429 91.429 91.429 91.429-40.923 91.429-91.429-40.923-91.429-91.429-91.429zM128 374.857c30.281 0 54.857 24.576 54.857 54.857s-24.576 54.857-54.857 54.857-54.857-24.576-54.857-54.857 24.576-54.857 54.857-54.857zM128 338.286c-50.505 0-91.429 40.923-91.429 91.429s40.923 91.429 91.429 91.429 91.429-40.923 91.429-91.429-40.923-91.429-91.429-91.429zM932.571 374.857c30.281 0 54.857 24.576 54.857 54.857s-24.576 54.857-54.857 54.857-54.857-24.576-54.857-54.857 24.576-54.857 54.857-54.857zM932.571 338.286c-50.505 0-91.429 40.923-91.429 91.429s40.923 91.429 91.429 91.429 91.429-40.923 91.429-91.429-40.923-91.429-91.429-91.429z" />
<glyph unicode="&#xe92a;" glyph-name="ticon_42" data-tags="ticon_42" d="M603.429 740.571h146.286v36.571h-146.286zM603.429 411.429h146.286v36.571h-146.286zM310.857 118.857h146.286v36.571h-146.286zM303.47 536.101l186.405 163.109-24.101 27.538-186.405-163.109zM804.571 685.714v-182.857h36.571v182.857zM512 356.571v-146.286h36.571v146.286zM219.429 429.714v-219.429h36.571v219.429zM237.714 448c30.281 0 54.857 24.576 54.857 54.857s-24.576 54.857-54.857 54.857-54.857-24.576-54.857-54.857 24.576-54.857 54.857-54.857zM237.714 411.429c-50.505 0-91.429 40.923-91.429 91.429s40.923 91.429 91.429 91.429 91.429-40.923 91.429-91.429-40.923-91.429-91.429-91.429zM530.286 704c30.281 0 54.857 24.576 54.857 54.857s-24.576 54.857-54.857 54.857-54.857-24.576-54.857-54.857 24.576-54.857 54.857-54.857zM530.286 667.429c-50.505 0-91.429 40.923-91.429 91.429s40.923 91.429 91.429 91.429 91.429-40.923 91.429-91.429-40.923-91.429-91.429-91.429zM822.857 704c30.281 0 54.857 24.576 54.857 54.857s-24.576 54.857-54.857 54.857-54.857-24.576-54.857-54.857 24.576-54.857 54.857-54.857zM822.857 667.429c-50.505 0-91.429 40.923-91.429 91.429s40.923 91.429 91.429 91.429 91.429-40.923 91.429-91.429-40.923-91.429-91.429-91.429zM530.286 374.857c30.281 0 54.857 24.576 54.857 54.857s-24.576 54.857-54.857 54.857-54.857-24.576-54.857-54.857 24.576-54.857 54.857-54.857zM530.286 338.286c-50.505 0-91.429 40.923-91.429 91.429s40.923 91.429 91.429 91.429 91.429-40.923 91.429-91.429-40.923-91.429-91.429-91.429zM822.857 374.857c30.281 0 54.857 24.576 54.857 54.857s-24.576 54.857-54.857 54.857-54.857-24.576-54.857-54.857 24.576-54.857 54.857-54.857zM822.857 338.286c-50.505 0-91.429 40.923-91.429 91.429s40.923 91.429 91.429 91.429 91.429-40.923 91.429-91.429-40.923-91.429-91.429-91.429zM237.714 82.286c30.281 0 54.857 24.576 54.857 54.857s-24.576 54.857-54.857 54.857-54.857-24.576-54.857-54.857 24.576-54.857 54.857-54.857zM237.714 45.714c-50.505 0-91.429 40.923-91.429 91.429s40.923 91.429 91.429 91.429 91.429-40.923 91.429-91.429-40.923-91.429-91.429-91.429zM530.286 82.286c30.281 0 54.857 24.576 54.857 54.857s-24.576 54.857-54.857 54.857-54.857-24.576-54.857-54.857 24.576-54.857 54.857-54.857zM530.286 45.714c-50.505 0-91.429 40.923-91.429 91.429s40.923 91.429 91.429 91.429 91.429-40.923 91.429-91.429-40.923-91.429-91.429-91.429z" />
<glyph unicode="&#xe92b;" glyph-name="ticon_43" data-tags="ticon_43" d="M310.857 118.857h402.286v36.571h-402.286zM219.429 649.143v-438.857h36.571v438.857zM273.664 657.189l449.573-479.525 26.697 25.015-449.573 479.525zM237.714 667.429c30.281 0 54.857 24.576 54.857 54.857s-24.576 54.857-54.857 54.857-54.857-24.576-54.857-54.857 24.576-54.857 54.857-54.857zM237.714 630.857c-50.505 0-91.429 40.923-91.429 91.429s40.923 91.429 91.429 91.429 91.429-40.923 91.429-91.429-40.923-91.429-91.429-91.429zM237.714 82.286c30.281 0 54.857 24.576 54.857 54.857s-24.576 54.857-54.857 54.857-54.857-24.576-54.857-54.857 24.576-54.857 54.857-54.857zM237.714 45.714c-50.505 0-91.429 40.923-91.429 91.429s40.923 91.429 91.429 91.429 91.429-40.923 91.429-91.429-40.923-91.429-91.429-91.429zM786.286 82.286c30.281 0 54.857 24.576 54.857 54.857s-24.576 54.857-54.857 54.857-54.857-24.576-54.857-54.857 24.576-54.857 54.857-54.857zM786.286 45.714c-50.505 0-91.429 40.923-91.429 91.429s40.923 91.429 91.429 91.429 91.429-40.923 91.429-91.429-40.923-91.429-91.429-91.429z" />
<glyph unicode="&#xe92c;" glyph-name="ticon_44" data-tags="ticon_44" d="M293.047 87.918c180.041-82.176 358.107-96.037 491.813 18.907l-23.845 27.721c-119.845-103.022-284.343-90.222-452.791-13.349l-15.177-33.28zM878.994 226.523c82.725 152.722 66.341 319.269-4.754 474.697l-33.243-15.214c66.779-146.030 82.066-301.349 5.851-442.075l32.146-17.408zM300.654 177.335l484.535 514.816-26.624 25.051-484.535-514.816zM237.714 82.286c30.281 0 54.857 24.576 54.857 54.857s-24.576 54.857-54.857 54.857-54.857-24.576-54.857-54.857 24.576-54.857 54.857-54.857zM237.714 45.714c-50.505 0-91.429 40.923-91.429 91.429s40.923 91.429 91.429 91.429 91.429-40.923 91.429-91.429-40.923-91.429-91.429-91.429zM822.857 704c30.281 0 54.857 24.576 54.857 54.857s-24.576 54.857-54.857 54.857-54.857-24.576-54.857-54.857 24.576-54.857 54.857-54.857zM822.857 667.429c-50.505 0-91.429 40.923-91.429 91.429s40.923 91.429 91.429 91.429 91.429-40.923 91.429-91.429-40.923-91.429-91.429-91.429zM822.857 118.857c30.281 0 54.857 24.576 54.857 54.857s-24.576 54.857-54.857 54.857-54.857-24.576-54.857-54.857 24.576-54.857 54.857-54.857zM822.857 82.286c-50.505 0-91.429 40.923-91.429 91.429s40.923 91.429 91.429 91.429 91.429-40.923 91.429-91.429-40.923-91.429-91.429-91.429z" />
<glyph unicode="&#xe92d;" glyph-name="ticon_45" data-tags="ticon_45" d="M228.791 204.727c20.041 110.592 58.77 218.039 121.746 303.982l-29.513 21.614c-66.743-91.173-107.264-203.52-128.219-319.086l35.986-6.51zM447.744 606.83c86.491 64.512 195.474 104.082 307.785 124.416l-6.51 35.986c-117.394-21.248-231.351-62.61-323.145-131.072l21.87-29.33zM384 521.143c30.281 0 54.857 24.576 54.857 54.857s-24.576 54.857-54.857 54.857-54.857-24.576-54.857-54.857 24.576-54.857 54.857-54.857zM384 484.571c-50.505 0-91.429 40.923-91.429 91.429s40.923 91.429 91.429 91.429 91.429-40.923 91.429-91.429-40.923-91.429-91.429-91.429zM822.857 704c30.281 0 54.857 24.576 54.857 54.857s-24.576 54.857-54.857 54.857-54.857-24.576-54.857-54.857 24.576-54.857 54.857-54.857zM822.857 667.429c-50.505 0-91.429 40.923-91.429 91.429s40.923 91.429 91.429 91.429 91.429-40.923 91.429-91.429-40.923-91.429-91.429-91.429zM201.143 82.286c30.281 0 54.857 24.576 54.857 54.857s-24.576 54.857-54.857 54.857-54.857-24.576-54.857-54.857 24.576-54.857 54.857-54.857zM201.143 45.714c-50.505 0-91.429 40.923-91.429 91.429s40.923 91.429 91.429 91.429 91.429-40.923 91.429-91.429-40.923-91.429-91.429-91.429z" />
<glyph unicode="&#xe92e;" glyph-name="ticon_46" data-tags="ticon_46" d="M643.84 243.785c10.789 84.261-21.358 131.145-119.735 217.929-90.039 79.433-116.699 118.528-107.52 186.917l-36.242 4.864c-11.41-84.919 20.736-132.023 119.552-219.209 89.673-79.104 116.334-118.016 107.63-185.893l36.279-4.645zM221.367 50.542c137.947-60.123 267.227-60.087 355.182 45.678l-28.123 23.406c-74.789-89.893-187.721-89.929-312.466-35.547l-14.629-33.536zM473.563 773.961c74.752 92.343 188.599 92.891 314.587 37.888l14.629 33.536c-139.337 60.818-269.751 60.197-357.632-48.421l28.416-23.003zM164.571 45.714c30.281 0 54.857 24.576 54.857 54.857s-24.576 54.857-54.857 54.857-54.857-24.576-54.857-54.857 24.576-54.857 54.857-54.857zM164.571 9.143c-50.505 0-91.429 40.923-91.429 91.429s40.923 91.429 91.429 91.429 91.429-40.923 91.429-91.429-40.923-91.429-91.429-91.429zM603.429 118.857c30.281 0 54.857 24.576 54.857 54.857s-24.576 54.857-54.857 54.857-54.857-24.576-54.857-54.857 24.576-54.857 54.857-54.857zM603.429 82.286c-50.505 0-91.429 40.923-91.429 91.429s40.923 91.429 91.429 91.429 91.429-40.923 91.429-91.429-40.923-91.429-91.429-91.429zM420.571 667.429c30.281 0 54.857 24.576 54.857 54.857s-24.576 54.857-54.857 54.857-54.857-24.576-54.857-54.857 24.576-54.857 54.857-54.857zM420.571 630.857c-50.505 0-91.429 40.923-91.429 91.429s40.923 91.429 91.429 91.429 91.429-40.923 91.429-91.429-40.923-91.429-91.429-91.429zM859.429 740.571c30.281 0 54.857 24.576 54.857 54.857s-24.576 54.857-54.857 54.857-54.857-24.576-54.857-54.857 24.576-54.857 54.857-54.857zM859.429 704c-50.505 0-91.429 40.923-91.429 91.429s40.923 91.429 91.429 91.429 91.429-40.923 91.429-91.429-40.923-91.429-91.429-91.429z" />
<glyph unicode="&#xe92f;" glyph-name="ticon_47" data-tags="ticon_47" d="M0 113.309l33.831 33.634 8.704 8.98c7.089 7.483 14.966 16.108 23.513 25.797 24.379 27.727 48.758 58.21 71.483 90.506 38.676 54.981 68.45 109.332 85.74 160.729 48.601 144.423 234.614 185.738 351.429 49.743 128.039-149.071-1.457-369.428-211.85-369.428h-362.772zM362.772 152.694c178.964 0 286.405 182.823 181.996 304.364-96.492 112.364-245.169 79.36-284.199-36.667-18.668-55.454-50.137-112.994-90.86-170.811-23.591-33.556-48.876-65.103-74.122-93.854l-2.678-3.072h269.903zM645.632 782.769l-55.887-50.649c-40.606-36.825-42.338-98.501-3.781-137.058l73.925-73.925c38.439-38.439 100.549-37.573 138.358 1.772l222.523 231.345-28.396 27.294-222.523-231.345c-22.607-23.473-59.353-23.985-82.156-1.221l-73.925 73.925c-22.607 22.607-21.583 58.289 2.402 80.030l55.887 50.649-26.466 29.184z" />
<glyph unicode="&#xe930;" glyph-name="ticon_48" data-tags="ticon_48" d="M202.659 105.705l651.636 651.636-32.908 32.908-651.636-651.636zM837.818 773.818l-372.364-139.636 232.727-232.727zM907.636 773.818c38.54 0 69.818 31.279 69.818 69.818s-31.279 69.818-69.818 69.818-69.818-31.279-69.818-69.818 31.279-69.818 69.818-69.818zM907.636 727.273c-64.279 0-116.364 52.084-116.364 116.364s52.084 116.364 116.364 116.364 116.364-52.084 116.364-116.364-52.084-116.364-116.364-116.364zM116.364-17.455c38.54 0 69.818 31.279 69.818 69.818s-31.279 69.818-69.818 69.818-69.818-31.279-69.818-69.818 31.279-69.818 69.818-69.818zM116.364-64c-64.279 0-116.364 52.084-116.364 116.364s52.084 116.364 116.364 116.364 116.364-52.084 116.364-116.364-52.084-116.364-116.364-116.364z" />
<glyph unicode="&#xe931;" glyph-name="ticon_49" data-tags="ticon_49" d="M209.455 820.364h605.091v46.545h-605.091zM209.455 29.091h605.091v46.545h-605.091zM93.091 750.545v-605.091h46.545v605.091zM884.364 750.545v-605.091h46.545v605.091zM116.364 773.818c38.54 0 69.818 31.279 69.818 69.818s-31.279 69.818-69.818 69.818-69.818-31.279-69.818-69.818 31.279-69.818 69.818-69.818zM116.364 727.273c-64.279 0-116.364 52.084-116.364 116.364s52.084 116.364 116.364 116.364 116.364-52.084 116.364-116.364-52.084-116.364-116.364-116.364zM907.636 773.818c38.54 0 69.818 31.279 69.818 69.818s-31.279 69.818-69.818 69.818-69.818-31.279-69.818-69.818 31.279-69.818 69.818-69.818zM907.636 727.273c-64.279 0-116.364 52.084-116.364 116.364s52.084 116.364 116.364 116.364 116.364-52.084 116.364-116.364-52.084-116.364-116.364-116.364zM907.636-17.455c38.54 0 69.818 31.279 69.818 69.818s-31.279 69.818-69.818 69.818-69.818-31.279-69.818-69.818 31.279-69.818 69.818-69.818zM907.636-64c-64.279 0-116.364 52.084-116.364 116.364s52.084 116.364 116.364 116.364 116.364-52.084 116.364-116.364-52.084-116.364-116.364-116.364zM116.364-17.455c38.54 0 69.818 31.279 69.818 69.818s-31.279 69.818-69.818 69.818-69.818-31.279-69.818-69.818 31.279-69.818 69.818-69.818zM116.364-64c-64.279 0-116.364 52.084-116.364 116.364s52.084 116.364 116.364 116.364 116.364-52.084 116.364-116.364-52.084-116.364-116.364-116.364z" />
<glyph unicode="&#xe932;" glyph-name="ticon_50" data-tags="ticon_50" d="M539.173 830.171l-153.893-153.893 25.856-25.856 153.893 153.893zM281.966 572.965l-153.125-153.125 25.856-25.856 153.125 153.125zM129.317 292.791l225.682-225.682 25.856 25.856-225.682 225.682zM483.913 64.914l154.331 154.331-25.856 25.856-154.331-154.331zM739.255 320.219l154.222 154.222-25.856 25.856-154.222-154.222zM893.184 604.672l-227.401 227.401-25.856-25.856 227.401-227.401zM91.429 301.714c30.281 0 54.857 24.576 54.857 54.857s-24.576 54.857-54.857 54.857-54.857-24.576-54.857-54.857 24.576-54.857 54.857-54.857zM91.429 265.143c-50.505 0-91.429 40.923-91.429 91.429s40.923 91.429 91.429 91.429 91.429-40.923 91.429-91.429-40.923-91.429-91.429-91.429zM347.429 557.714c30.281 0 54.857 24.576 54.857 54.857s-24.576 54.857-54.857 54.857-54.857-24.576-54.857-54.857 24.576-54.857 54.857-54.857zM347.429 521.143c-50.505 0-91.429 40.923-91.429 91.429s40.923 91.429 91.429 91.429 91.429-40.923 91.429-91.429-40.923-91.429-91.429-91.429zM603.429 813.714c30.281 0 54.857 24.576 54.857 54.857s-24.576 54.857-54.857 54.857-54.857-24.576-54.857-54.857 24.576-54.857 54.857-54.857zM603.429 777.143c-50.505 0-91.429 40.923-91.429 91.429s40.923 91.429 91.429 91.429 91.429-40.923 91.429-91.429-40.923-91.429-91.429-91.429zM420.571-27.429c30.281 0 54.857 24.576 54.857 54.857s-24.576 54.857-54.857 54.857-54.857-24.576-54.857-54.857 24.576-54.857 54.857-54.857zM420.571-64c-50.505 0-91.429 40.923-91.429 91.429s40.923 91.429 91.429 91.429 91.429-40.923 91.429-91.429-40.923-91.429-91.429-91.429zM676.571 228.571c30.281 0 54.857 24.576 54.857 54.857s-24.576 54.857-54.857 54.857-54.857-24.576-54.857-54.857 24.576-54.857 54.857-54.857zM676.571 192c-50.505 0-91.429 40.923-91.429 91.429s40.923 91.429 91.429 91.429 91.429-40.923 91.429-91.429-40.923-91.429-91.429-91.429zM932.571 484.571c30.281 0 54.857 24.576 54.857 54.857s-24.576 54.857-54.857 54.857-54.857-24.576-54.857-54.857 24.576-54.857 54.857-54.857zM932.571 448c-50.505 0-91.429 40.923-91.429 91.429s40.923 91.429 91.429 91.429 91.429-40.923 91.429-91.429-40.923-91.429-91.429-91.429z" />
<glyph unicode="&#xe933;" glyph-name="ticon_51" data-tags="ticon_51" d="M433.683 765.212c-167.291-22.338-302.763-115.257-344.557-237.796l35.878-12.25c36.674 107.558 159.63 191.867 313.685 212.461l-5.006 37.585zM89.012 368.962c41.756-122.994 177.835-216.216 345.771-238.289l4.93 37.585c-154.7 20.366-278.187 104.941-314.823 212.878l-35.916-12.174zM589.9 130.75c166.153 22.073 301.132 113.778 344.026 235.141l-35.764 12.629c-37.698-106.61-160.199-189.857-313.268-210.185l5.006-37.585zM934.722 527.872c-41.984 122.311-177.304 214.964-344.292 237.303l-5.044-37.585c153.828-20.556 276.594-104.676 313.458-212.044l35.878 12.326zM512 694.519c31.403 0 56.889 25.486 56.889 56.889s-25.486 56.889-56.889 56.889-56.889-25.486-56.889-56.889 25.486-56.889 56.889-56.889zM512 656.593c-52.376 0-94.815 42.439-94.815 94.815s42.439 94.815 94.815 94.815 94.815-42.439 94.815-94.815-42.439-94.815-94.815-94.815zM512 87.704c31.403 0 56.889 25.486 56.889 56.889s-25.486 56.889-56.889 56.889-56.889-25.486-56.889-56.889 25.486-56.889 56.889-56.889zM512 49.778c-52.376 0-94.815 42.439-94.815 94.815s42.439 94.815 94.815 94.815 94.815-42.439 94.815-94.815-42.439-94.815-94.815-94.815zM94.815 391.111c31.403 0 56.889 25.486 56.889 56.889s-25.486 56.889-56.889 56.889-56.889-25.486-56.889-56.889 25.486-56.889 56.889-56.889zM94.815 353.185c-52.376 0-94.815 42.439-94.815 94.815s42.439 94.815 94.815 94.815 94.815-42.439 94.815-94.815-42.439-94.815-94.815-94.815zM929.185 391.111c31.403 0 56.889 25.486 56.889 56.889s-25.486 56.889-56.889 56.889-56.889-25.486-56.889-56.889 25.486-56.889 56.889-56.889zM929.185 353.185c-52.376 0-94.815 42.439-94.815 94.815s42.439 94.815 94.815 94.815 94.815-42.439 94.815-94.815-42.439-94.815-94.815-94.815z" />
<glyph unicode="&#xe934;" glyph-name="ticon_52" data-tags="ticon_52" d="M605.091 820.364h186.182v46.545h-186.182zM605.091 401.455h186.182v46.545h-186.182zM232.727 29.091h186.182v46.545h-186.182zM223.325 560.128l237.242 207.593-30.673 35.049-237.242-207.593zM861.091 750.545v-232.727h46.545v232.727zM488.727 331.636v-186.182h46.545v186.182zM116.364 424.727v-279.273h46.545v279.273zM139.636 448c38.54 0 69.818 31.279 69.818 69.818s-31.279 69.818-69.818 69.818-69.818-31.279-69.818-69.818 31.279-69.818 69.818-69.818zM139.636 401.455c-64.279 0-116.364 52.084-116.364 116.364s52.084 116.364 116.364 116.364 116.364-52.084 116.364-116.364-52.084-116.364-116.364-116.364zM512 773.818c38.54 0 69.818 31.279 69.818 69.818s-31.279 69.818-69.818 69.818-69.818-31.279-69.818-69.818 31.279-69.818 69.818-69.818zM512 727.273c-64.279 0-116.364 52.084-116.364 116.364s52.084 116.364 116.364 116.364 116.364-52.084 116.364-116.364-52.084-116.364-116.364-116.364zM884.364 773.818c38.54 0 69.818 31.279 69.818 69.818s-31.279 69.818-69.818 69.818-69.818-31.279-69.818-69.818 31.279-69.818 69.818-69.818zM884.364 727.273c-64.279 0-116.364 52.084-116.364 116.364s52.084 116.364 116.364 116.364 116.364-52.084 116.364-116.364-52.084-116.364-116.364-116.364zM512 354.909c38.54 0 69.818 31.279 69.818 69.818s-31.279 69.818-69.818 69.818-69.818-31.279-69.818-69.818 31.279-69.818 69.818-69.818zM512 308.364c-64.279 0-116.364 52.084-116.364 116.364s52.084 116.364 116.364 116.364 116.364-52.084 116.364-116.364-52.084-116.364-116.364-116.364zM884.364 354.909c38.54 0 69.818 31.279 69.818 69.818s-31.279 69.818-69.818 69.818-69.818-31.279-69.818-69.818 31.279-69.818 69.818-69.818zM884.364 308.364c-64.279 0-116.364 52.084-116.364 116.364s52.084 116.364 116.364 116.364 116.364-52.084 116.364-116.364-52.084-116.364-116.364-116.364zM139.636-17.455c38.54 0 69.818 31.279 69.818 69.818s-31.279 69.818-69.818 69.818-69.818-31.279-69.818-69.818 31.279-69.818 69.818-69.818zM139.636-64c-64.279 0-116.364 52.084-116.364 116.364s52.084 116.364 116.364 116.364 116.364-52.084 116.364-116.364-52.084-116.364-116.364-116.364zM512-17.455c38.54 0 69.818 31.279 69.818 69.818s-31.279 69.818-69.818 69.818-69.818-31.279-69.818-69.818 31.279-69.818 69.818-69.818zM512-64c-64.279 0-116.364 52.084-116.364 116.364s52.084 116.364 116.364 116.364 116.364-52.084 116.364-116.364-52.084-116.364-116.364-116.364z" />
<glyph unicode="&#xe935;" glyph-name="ticon_53" data-tags="ticon_53" d="M243.81 33.524h536.381v48.762h-536.381zM121.905 740.571v-585.143h48.762v585.143zM194.219 751.299l599.43-639.366 35.596 33.353-599.43 639.366zM146.286 764.952c40.375 0 73.143 32.768 73.143 73.143s-32.768 73.143-73.143 73.143-73.143-32.768-73.143-73.143 32.768-73.143 73.143-73.143zM146.286 716.19c-67.34 0-121.905 54.565-121.905 121.905s54.565 121.905 121.905 121.905 121.905-54.565 121.905-121.905-54.565-121.905-121.905-121.905zM146.286-15.238c40.375 0 73.143 32.768 73.143 73.143s-32.768 73.143-73.143 73.143-73.143-32.768-73.143-73.143 32.768-73.143 73.143-73.143zM146.286-64c-67.34 0-121.905 54.565-121.905 121.905s54.565 121.905 121.905 121.905 121.905-54.565 121.905-121.905-54.565-121.905-121.905-121.905zM877.714-15.238c40.375 0 73.143 32.768 73.143 73.143s-32.768 73.143-73.143 73.143-73.143-32.768-73.143-73.143 32.768-73.143 73.143-73.143zM877.714-64c-67.34 0-121.905 54.565-121.905 121.905s54.565 121.905 121.905 121.905 121.905-54.565 121.905-121.905-54.565-121.905-121.905-121.905z" />
<glyph unicode="&#xe936;" glyph-name="ticon_54" data-tags="ticon_54" d="M200.927 31.9c219.181-100.040 435.957-116.914 598.728 23.018l-29.028 33.747c-145.898-125.418-346.157-109.835-551.224-16.25l-18.477-40.515zM914.254 200.637c100.708 185.923 80.762 388.675-5.788 577.892l-40.47-18.521c81.297-177.775 99.907-366.859 7.123-538.179l39.135-21.192zM210.187 140.755l589.869 626.733-32.412 30.497-589.869-626.733zM133.565 25.043c36.864 0 66.783 29.919 66.783 66.783s-29.919 66.783-66.783 66.783-66.783-29.919-66.783-66.783 29.919-66.783 66.783-66.783zM133.565-19.478c-61.485 0-111.304 49.82-111.304 111.304s49.82 111.304 111.304 111.304 111.304-49.82 111.304-111.304-49.82-111.304-111.304-111.304zM845.913 781.913c36.864 0 66.783 29.919 66.783 66.783s-29.919 66.783-66.783 66.783-66.783-29.919-66.783-66.783 29.919-66.783 66.783-66.783zM845.913 737.391c-61.485 0-111.304 49.82-111.304 111.304s49.82 111.304 111.304 111.304 111.304-49.82 111.304-111.304-49.82-111.304-111.304-111.304zM845.913 69.565c36.864 0 66.783 29.919 66.783 66.783s-29.919 66.783-66.783 66.783-66.783-29.919-66.783-66.783 29.919-66.783 66.783-66.783zM845.913 25.043c-61.485 0-111.304 49.82-111.304 111.304s49.82 111.304 111.304 111.304 111.304-49.82 111.304-111.304-49.82-111.304-111.304-111.304z" />
<glyph unicode="&#xe937;" glyph-name="ticon_55" data-tags="ticon_55" d="M151.552 138.38c25.507 140.753 74.799 277.504 154.95 386.886l-37.562 27.508c-84.945-116.038-136.518-259.025-163.188-406.109l45.801-8.285zM430.22 650.147c110.080 82.106 248.785 132.468 391.727 158.348l-8.285 45.801c-149.411-27.043-294.447-79.686-411.276-166.819l27.834-37.329zM349.091 541.091c38.54 0 69.818 31.279 69.818 69.818s-31.279 69.818-69.818 69.818-69.818-31.279-69.818-69.818 31.279-69.818 69.818-69.818zM349.091 494.545c-64.279 0-116.364 52.084-116.364 116.364s52.084 116.364 116.364 116.364 116.364-52.084 116.364-116.364-52.084-116.364-116.364-116.364zM907.636 773.818c38.54 0 69.818 31.279 69.818 69.818s-31.279 69.818-69.818 69.818-69.818-31.279-69.818-69.818 31.279-69.818 69.818-69.818zM907.636 727.273c-64.279 0-116.364 52.084-116.364 116.364s52.084 116.364 116.364 116.364 116.364-52.084 116.364-116.364-52.084-116.364-116.364-116.364zM116.364-17.455c38.54 0 69.818 31.279 69.818 69.818s-31.279 69.818-69.818 69.818-69.818-31.279-69.818-69.818 31.279-69.818 69.818-69.818zM116.364-64c-64.279 0-116.364 52.084-116.364 116.364s52.084 116.364 116.364 116.364 116.364-52.084 116.364-116.364-52.084-116.364-116.364-116.364z" />
<glyph unicode="&#xe938;" glyph-name="ticon_56" data-tags="ticon_56" d="M665.813 209.749c12.587 98.304-24.917 153.003-139.691 254.251-105.045 92.672-136.149 138.283-125.44 218.069l-42.283 5.675c-13.312-99.072 24.192-154.027 139.477-255.744 104.619-92.288 135.723-137.685 125.568-216.875l42.325-5.419zM172.928-15.701c160.939-70.144 311.765-70.101 414.379 53.291l-32.811 27.307c-87.253-104.875-219.008-104.917-364.544-41.472l-17.067-39.125zM467.157 828.288c87.211 107.733 220.032 108.373 367.019 44.203l17.067 39.125c-162.56 70.955-314.709 70.229-417.237-56.491l33.152-26.837zM106.667-21.333c35.328 0 64 28.672 64 64s-28.672 64-64 64-64-28.672-64-64 28.672-64 64-64zM106.667-64c-58.923 0-106.667 47.744-106.667 106.667s47.744 106.667 106.667 106.667 106.667-47.744 106.667-106.667-47.744-106.667-106.667-106.667zM618.667 64c35.328 0 64 28.672 64 64s-28.672 64-64 64-64-28.672-64-64 28.672-64 64-64zM618.667 21.333c-58.923 0-106.667 47.744-106.667 106.667s47.744 106.667 106.667 106.667 106.667-47.744 106.667-106.667-47.744-106.667-106.667-106.667zM405.333 704c35.328 0 64 28.672 64 64s-28.672 64-64 64-64-28.672-64-64 28.672-64 64-64zM405.333 661.333c-58.923 0-106.667 47.744-106.667 106.667s47.744 106.667 106.667 106.667 106.667-47.744 106.667-106.667-47.744-106.667-106.667-106.667zM917.333 789.333c35.328 0 64 28.672 64 64s-28.672 64-64 64-64-28.672-64-64 28.672-64 64-64zM917.333 746.667c-58.923 0-106.667 47.744-106.667 106.667s47.744 106.667 106.667 106.667 106.667-47.744 106.667-106.667-47.744-106.667-106.667-106.667z" />
<glyph unicode="&#xe939;" glyph-name="ticon_57" data-tags="ticon_57" d="M164.571 777.143c-30.297 0-54.857-24.56-54.857-54.857s24.56-54.857 54.857-54.857v0c30.297 0 54.857 24.56 54.857 54.857s-24.56 54.857-54.857 54.857v0zM73.143 722.286c0 0.027 0 0.060 0 0.092 0 50.495 40.934 91.429 91.429 91.429 44.055 0 80.832-31.159 89.496-72.641l0.104-0.594h623.543v-36.571h-623.543c-8.768-42.076-45.545-73.235-89.6-73.235-50.495 0-91.429 40.934-91.429 91.429 0 0.032 0 0.065 0 0.097v-0.005zM164.571 411.429c-30.297 0-54.857-24.56-54.857-54.857s24.56-54.857 54.857-54.857v0c30.297 0 54.857 24.56 54.857 54.857s-24.56 54.857-54.857 54.857v0zM73.143 356.571c0 0.027 0 0.060 0 0.092 0 50.495 40.934 91.429 91.429 91.429 44.055 0 80.832-31.159 89.496-72.641l0.104-0.594h479.086c8.804 42.031 45.56 73.143 89.581 73.143 50.495 0 91.429-40.934 91.429-91.429s-40.934-91.429-91.429-91.429c-44.022 0-80.777 31.112-89.477 72.548l-0.105 0.595h-479.086c-8.768-42.076-45.545-73.235-89.6-73.235-50.495 0-91.429 40.934-91.429 91.429 0 0.032 0 0.065 0 0.097v-0.005zM822.857 411.429c-30.297 0-54.857-24.56-54.857-54.857s24.56-54.857 54.857-54.857v0c30.297 0 54.857 24.56 54.857 54.857s-24.56 54.857-54.857 54.857v0zM164.571 192c-30.297 0-54.857-24.56-54.857-54.857s24.56-54.857 54.857-54.857v0c30.297 0 54.857 24.56 54.857 54.857s-24.56 54.857-54.857 54.857v0zM73.143 137.143c0 0.027 0 0.060 0 0.092 0 50.495 40.934 91.429 91.429 91.429 44.055 0 80.832-31.159 89.496-72.641l0.104-0.594h623.543v-36.571h-623.543c-8.768-42.076-45.545-73.235-89.6-73.235-50.495 0-91.429 40.934-91.429 91.429 0 0.032 0 0.065 0 0.097v-0.005zM819.2 633.051l-50.834-23.040-14.994 33.28 50.834 23.040 14.994-33.28zM672.914 567.223l-50.834-23.040-14.994 33.28 50.834 23.040 14.994-33.28zM526.629 501.394l-51.2-23.040-14.629 33.28 50.834 23.040 14.994-33.28zM380.343 435.566l-51.2-23.040-14.629 33.28 50.834 23.040 14.994-33.28z" />
<glyph unicode="&#xe93a;" glyph-name="ticon_58" data-tags="ticon_58" d="M230.4 870.4l89.6 89.6 512-512-512-512-89.6 89.6 408.896 418.048-408.896 426.752z" />
<glyph unicode="&#xe93b;" glyph-name="ticon_59" data-tags="ticon_59" d="M164.571 82.286c-30.297 0-54.857 24.56-54.857 54.857s24.56 54.857 54.857 54.857v0c30.297 0 54.857-24.56 54.857-54.857s-24.56-54.857-54.857-54.857v0zM73.143 137.143c0-0.027 0-0.060 0-0.092 0-50.495 40.934-91.429 91.429-91.429 44.055 0 80.832 31.159 89.496 72.641l0.104 0.594h623.543v36.571h-623.543c-8.768 42.076-45.545 73.235-89.6 73.235-50.495 0-91.429-40.934-91.429-91.429 0-0.032 0-0.065 0-0.097v0.005zM164.571 448c-30.297 0-54.857 24.56-54.857 54.857s24.56 54.857 54.857 54.857v0c30.297 0 54.857-24.56 54.857-54.857s-24.56-54.857-54.857-54.857v0zM73.143 502.857c0-0.027 0-0.060 0-0.092 0-50.495 40.934-91.429 91.429-91.429 44.055 0 80.832 31.159 89.496 72.641l0.104 0.594h479.086c8.804-42.031 45.56-73.143 89.581-73.143 50.495 0 91.429 40.934 91.429 91.429s-40.934 91.429-91.429 91.429c-44.022 0-80.777-31.112-89.477-72.548l-0.105-0.595h-479.086c-8.768 42.076-45.545 73.235-89.6 73.235-50.495 0-91.429-40.934-91.429-91.429 0-0.032 0-0.065 0-0.097v0.005zM822.857 448c-30.297 0-54.857 24.56-54.857 54.857s24.56 54.857 54.857 54.857v0c30.297 0 54.857-24.56 54.857-54.857s-24.56-54.857-54.857-54.857v0zM164.571 667.429c-30.297 0-54.857 24.56-54.857 54.857s24.56 54.857 54.857 54.857v0c30.297 0 54.857-24.56 54.857-54.857s-24.56-54.857-54.857-54.857v0zM73.143 722.286c0-0.027 0-0.060 0-0.092 0-50.495 40.934-91.429 91.429-91.429 44.055 0 80.832 31.159 89.496 72.641l0.104 0.594h623.543v36.571h-623.543c-8.768 42.076-45.545 73.235-89.6 73.235-50.495 0-91.429-40.934-91.429-91.429 0-0.032 0-0.065 0-0.097v0.005zM819.2 226.377l-50.834 23.040-14.994-33.28 50.834-23.040 14.994 33.28zM672.914 292.206l-50.834 23.040-14.994-33.28 50.834-23.040 14.994 33.28zM526.629 358.034l-51.2 23.040-14.629-33.28 50.834-23.040 14.994 33.28zM380.343 423.863l-51.2 23.040-14.629-33.28 50.834-23.040 14.994 33.28z" />
<glyph unicode="&#xe93c;" glyph-name="ticon_60" data-tags="ticon_60" d="M694.857 557.714h182.857l-91.429-109.714zM841.143 356.571c0-30.297-24.56-54.857-54.857-54.857s-54.857 24.56-54.857 54.857c0 30.297 24.56 54.857 54.857 54.857s54.857-24.56 54.857-54.857zM804.571 557.714v219.429h-36.571v-219.429zM512 301.714h36.571v-109.714h-36.571zM512 777.143h36.571v-219.429h-36.571zM256 265.143h36.571v-109.714h-36.571zM256 740.571h36.571v-256h-36.571zM256 484.571v-219.429h36.571v219.429h-36.571zM219.429 521.143h109.714v-292.571h-109.714v292.571zM512 301.714h36.571v256h-36.571v-256zM475.429 594.286h109.714v-329.143h-109.714v329.143z" />
<glyph unicode="&#xe93d;" glyph-name="ticon_61" data-tags="ticon_61" d="M219.429 740.571v-237.714h36.571v237.714zM256 155.429v91.429h-36.571v-91.429zM402.286 557.714v-91.429h36.571v91.429zM438.857 82.286v274.286h-36.571v-274.286zM585.143 777.143v-201.143h36.571v201.143zM621.714 192v91.429h-36.571v-91.429zM768 704v-164.571h36.571v164.571zM804.571 265.143v91.429h-36.571v-91.429zM219.429 484.571v-219.429h36.571v219.429h-36.571zM182.857 521.143h109.714v-292.571h-109.714v292.571zM402.286 374.857h36.571v73.143h-36.571v-73.143zM365.714 484.571h109.714v-146.286h-109.714v146.286zM585.143 301.714h36.571v256h-36.571v-256zM548.571 594.286h109.714v-329.143h-109.714v329.143zM768 374.857h36.571v146.286h-36.571v-146.286zM731.429 557.714h109.714v-219.429h-109.714v219.429z" />
<glyph unicode="&#xe93e;" glyph-name="ticon_62" data-tags="ticon_62" d="M165.632 294.034l115.456 47.25-13.861 33.865-115.456-47.25zM355.986 371.895l108.617 44.434-13.861 33.865-108.617-44.434zM538.514 446.574l108.142 44.251-13.861 33.865-108.142-44.251zM720.75 521.106l113.883 46.592-13.861 33.865-113.883-46.592zM292.571 301.714h36.571v-109.714h-36.571zM292.571 630.857h36.571v-182.857h-36.571zM292.571 301.714h36.571v146.286h-36.571v-146.286zM256 484.571h109.714v-219.429h-109.714v219.429zM658.286 374.857h36.571v-109.714h-36.571zM658.286 850.286h36.571v-219.429h-36.571zM658.286 374.857h36.571v256h-36.571v-256zM621.714 667.429h109.714v-329.143h-109.714v329.143zM475.429 740.571h36.571v-182.857h-36.571zM475.429 411.429h36.571v-182.857h-36.571zM475.429 411.429h36.571v146.286h-36.571v-146.286zM438.857 594.286h109.714v-219.429h-109.714v219.429zM91.429 228.571c30.281 0 54.857 24.576 54.857 54.857s-24.576 54.857-54.857 54.857-54.857-24.576-54.857-54.857 24.576-54.857 54.857-54.857zM91.429 192c-50.505 0-91.429 40.923-91.429 91.429s40.923 91.429 91.429 91.429 91.429-40.923 91.429-91.429-40.923-91.429-91.429-91.429zM896 557.714c30.281 0 54.857 24.576 54.857 54.857s-24.576 54.857-54.857 54.857-54.857-24.576-54.857-54.857 24.576-54.857 54.857-54.857zM896 521.143c-50.505 0-91.429 40.923-91.429 91.429s40.923 91.429 91.429 91.429 91.429-40.923 91.429-91.429-40.923-91.429-91.429-91.429z" />
<glyph unicode="&#xe93f;" glyph-name="ticon_63" data-tags="ticon_63" d="M873.545 176.238c-34.853 312.978-283.136 561.518-596.078 596.663l-4.096-36.352c295.973-33.243 530.871-268.361 563.822-564.37l36.352 4.059zM182.857 685.714v-512h36.571v512zM786.286 118.857h-512v-36.571h512zM201.143 704c30.281 0 54.857 24.576 54.857 54.857s-24.576 54.857-54.857 54.857-54.857-24.576-54.857-54.857 24.576-54.857 54.857-54.857zM201.143 667.429c-50.505 0-91.429 40.923-91.429 91.429s40.923 91.429 91.429 91.429 91.429-40.923 91.429-91.429-40.923-91.429-91.429-91.429zM859.429 45.714c30.281 0 54.857 24.576 54.857 54.857s-24.576 54.857-54.857 54.857-54.857-24.576-54.857-54.857 24.576-54.857 54.857-54.857zM859.429 9.143c-50.505 0-91.429 40.923-91.429 91.429s40.923 91.429 91.429 91.429 91.429-40.923 91.429-91.429-40.923-91.429-91.429-91.429zM201.143 45.714c30.281 0 54.857 24.576 54.857 54.857s-24.576 54.857-54.857 54.857-54.857-24.576-54.857-54.857 24.576-54.857 54.857-54.857zM201.143 9.143c-50.505 0-91.429 40.923-91.429 91.429s40.923 91.429 91.429 91.429 91.429-40.923 91.429-91.429-40.923-91.429-91.429-91.429z" />
<glyph unicode="&#xe940;" glyph-name="ticon_64" data-tags="ticon_64" d="M621.714 338.286h36.571v-219.429h-36.571v219.429zM621.714 886.857h36.571v-182.857h-36.571v182.857zM585.143 338.286h109.714v329.143h-109.714v-329.143zM548.571 704h182.857v-402.286h-182.857v402.286zM365.714 777.143h36.571v-182.857h-36.571v182.857zM365.714 155.429h36.571v-109.714h-36.571v109.714zM329.143 192h109.714v402.286h-109.714v-402.286zM292.571 630.857h182.857v-475.429h-182.857v475.429zM924.16 615.497l-408.503-260.023-255.269 54.857-66.56-50.103-21.943 29.257 79.726 59.977 256.731-54.857 396.069 251.611 19.749-30.72zM146.286 301.714v0c-20.198 0-36.571 16.374-36.571 36.571s16.374 36.571 36.571 36.571v0c20.198 0 36.571-16.374 36.571-36.571s-16.374-36.571-36.571-36.571zM146.286 265.143c40.396 0 73.143 32.747 73.143 73.143s-32.747 73.143-73.143 73.143v0c-40.396 0-73.143-32.747-73.143-73.143s32.747-73.143 73.143-73.143v0z" />
<glyph unicode="&#xe941;" glyph-name="ticon_65" data-tags="ticon_65" d="M182.857 173.714c0-30.297-24.56-54.857-54.857-54.857s-54.857 24.56-54.857 54.857v0c0 30.297 24.56 54.857 54.857 54.857s54.857-24.56 54.857-54.857v0zM128 82.286c0.027 0 0.060 0 0.092 0 50.495 0 91.429 40.934 91.429 91.429 0 44.055-31.159 80.832-72.641 89.496l-0.594 0.104v586.971h-36.571v-586.971c-42.076-8.768-73.235-45.545-73.235-89.6 0-50.495 40.934-91.429 91.429-91.429 0.032 0 0.065 0 0.097 0h-0.005zM914.286 758.857c0 30.297-24.56 54.857-54.857 54.857s-54.857-24.56-54.857-54.857v0c0-30.297 24.56-54.857 54.857-54.857s54.857 24.56 54.857 54.857v0zM859.429 850.286c0.027 0 0.060 0 0.092 0 50.495 0 91.429-40.934 91.429-91.429 0-44.055-31.159-80.832-72.641-89.496l-0.594-0.104v-586.971h-36.571v586.971c-42.076 8.768-73.235 45.545-73.235 89.6 0 50.495 40.934 91.429 91.429 91.429 0.032 0 0.065 0 0.097 0h-0.005zM329.143 704v-73.143h-182.857v73.143h182.857zM109.714 740.571v-146.286h256v146.286h-256zM438.857 594.286v-73.143h-292.571v73.143h292.571zM109.714 630.857v-146.286h365.714v146.286h-365.714zM256 484.571v-73.143h-109.714v73.143h109.714zM109.714 521.143v-146.286h182.857v146.286h-182.857z" />
<glyph unicode="&#xe942;" glyph-name="ticon_66" data-tags="ticon_66" d="M877.714 850.286h-36.571v-146.286h-219.429v-109.714h-182.857v-109.714h-111.543c-8.804 42.031-45.56 73.143-89.581 73.143-50.495 0-91.429-40.934-91.429-91.429s40.934-91.429 91.429-91.429c44.022 0 80.777 31.112 89.477 72.548l0.105 0.595h221.257v-109.714h182.857v-109.714h109.714v-146.286h36.571v768zM658.286 594.286h182.857v73.143h-182.857v-73.143zM621.714 557.714h-146.286v-73.143h365.714v73.143h-219.429zM768 374.857h-182.857v73.143h256v-73.143h-73.143zM768 265.143v73.143h73.143v-73.143h-73.143zM237.714 411.429c30.297 0 54.857 24.56 54.857 54.857s-24.56 54.857-54.857 54.857v0c-30.297 0-54.857-24.56-54.857-54.857s24.56-54.857 54.857-54.857v0z" />
<glyph unicode="&#xe943;" glyph-name="ticon_67" data-tags="ticon_67" d="M146.286 777.143h603.429v36.571h-603.429zM914.286 82.286h-603.429v-36.571h603.429zM237.714 9.143c30.281 0 54.857 24.576 54.857 54.857s-24.576 54.857-54.857 54.857-54.857-24.576-54.857-54.857 24.576-54.857 54.857-54.857zM237.714-27.429c-50.505 0-91.429 40.923-91.429 91.429s40.923 91.429 91.429 91.429 91.429-40.923 91.429-91.429-40.923-91.429-91.429-91.429zM822.857 740.571c30.281 0 54.857 24.576 54.857 54.857s-24.576 54.857-54.857 54.857-54.857-24.576-54.857-54.857 24.576-54.857 54.857-54.857zM822.857 704c-50.505 0-91.429 40.923-91.429 91.429s40.923 91.429 91.429 91.429 91.429-40.923 91.429-91.429-40.923-91.429-91.429-91.429zM512 630.857v-512h36.571v512zM530.286 740.571l91.429-109.714h-182.857z" />
<glyph unicode="&#xe944;" glyph-name="ticon_68" data-tags="ticon_68" d="M731.429 448h-512v-36.571h512zM731.429 338.286v182.857l109.714-91.429zM877.714 649.143v-603.429h36.571v603.429zM146.286 813.714v-603.429h36.571v603.429zM164.571 82.286c30.281 0 54.857 24.576 54.857 54.857s-24.576 54.857-54.857 54.857-54.857-24.576-54.857-54.857 24.576-54.857 54.857-54.857zM164.571 45.714c-50.505 0-91.429 40.923-91.429 91.429s40.923 91.429 91.429 91.429 91.429-40.923 91.429-91.429-40.923-91.429-91.429-91.429zM896 667.429c30.281 0 54.857 24.576 54.857 54.857s-24.576 54.857-54.857 54.857-54.857-24.576-54.857-54.857 24.576-54.857 54.857-54.857zM896 630.857c-50.505 0-91.429 40.923-91.429 91.429s40.923 91.429 91.429 91.429 91.429-40.923 91.429-91.429-40.923-91.429-91.429-91.429z" />
<glyph unicode="&#xe945;" glyph-name="ticon_69" data-tags="ticon_69" d="M237.714 118.857v-36.571h640v640h-36.571v-603.429zM786.286 777.143v36.571h-640v-640h36.571v603.429zM164.571 45.714c30.281 0 54.857 24.576 54.857 54.857s-24.576 54.857-54.857 54.857-54.857-24.576-54.857-54.857 24.576-54.857 54.857-54.857zM164.571 9.143c-50.505 0-91.429 40.923-91.429 91.429s40.923 91.429 91.429 91.429 91.429-40.923 91.429-91.429-40.923-91.429-91.429-91.429zM859.429 740.571c30.281 0 54.857 24.576 54.857 54.857s-24.576 54.857-54.857 54.857-54.857-24.576-54.857-54.857 24.576-54.857 54.857-54.857zM859.429 704c-50.505 0-91.429 40.923-91.429 91.429s40.923 91.429 91.429 91.429 91.429-40.923 91.429-91.429-40.923-91.429-91.429-91.429zM475.429 630.857v-475.429h36.571v475.429zM493.714 740.571l91.429-109.714h-182.857zM694.857 448h-475.429v-36.571h475.429zM694.857 338.286v182.857l109.714-91.429z" />
<glyph unicode="&#xe946;" glyph-name="ticon_70" data-tags="ticon_70" d="M739.556 590.222h284.444l-142.222-170.667zM967.111 277.333c0-47.128-38.205-85.333-85.333-85.333s-85.333 38.205-85.333 85.333c0 47.128 38.205 85.333 85.333 85.333s85.333-38.205 85.333-85.333zM910.222 590.222v341.333h-56.889v-341.333zM455.111 192h56.889v-170.667h-56.889zM455.111 931.556h56.889v-341.333h-56.889zM56.889 135.111h56.889v-170.667h-56.889zM56.889 874.667h56.889v-398.222h-56.889zM56.889 476.444v-341.333h56.889v341.333h-56.889zM0 533.333h170.667v-455.111h-170.667v455.111zM455.111 192h56.889v398.222h-56.889v-398.222zM398.222 647.111h170.667v-512h-170.667v512z" />
<glyph unicode="&#xe947;" glyph-name="ticon_71" data-tags="ticon_71" d="M80.842 906.105v-350.316h53.895v350.316zM134.737 43.789v134.737h-53.895v-134.737zM350.316 636.632v-134.737h53.895v134.737zM404.211-64v404.211h-53.895v-404.211zM619.789 960v-296.421h53.895v296.421zM673.684 97.684v134.737h-53.895v-134.737zM889.263 852.211v-242.526h53.895v242.526zM943.158 205.474v134.737h-53.895v-134.737zM80.842 528.842v-323.368h53.895v323.368h-53.895zM26.947 582.737h161.684v-431.158h-161.684v431.158zM350.316 367.158h53.895v107.789h-53.895v-107.789zM296.421 528.842h161.684v-215.579h-161.684v215.579zM619.789 259.368h53.895v377.263h-53.895v-377.263zM565.895 690.526h161.684v-485.053h-161.684v485.053zM889.263 367.158h53.895v215.579h-53.895v-215.579zM835.368 636.632h161.684v-323.368h-161.684v323.368z" />
<glyph unicode="&#xe948;" glyph-name="ticon_72" data-tags="ticon_72" d="M171.767 212.48l119.732 49-14.374 35.119-119.732-49zM369.171 293.224l112.64 46.080-14.374 35.119-112.64-46.080zM558.459 370.669l112.147 45.89-14.374 35.119-112.147-45.89zM747.444 447.962l118.101 48.318-14.374 35.119-118.101-48.318zM303.407 220.444h37.926v-113.778h-37.926zM303.407 561.778h37.926v-189.63h-37.926zM303.407 220.444h37.926v151.704h-37.926v-151.704zM265.481 410.074h113.778v-227.556h-113.778v227.556zM682.667 296.296h37.926v-113.778h-37.926zM682.667 789.333h37.926v-227.556h-37.926zM682.667 296.296h37.926v265.481h-37.926v-265.481zM644.741 599.704h113.778v-341.333h-113.778v341.333zM493.037 675.556h37.926v-189.63h-37.926zM493.037 334.222h37.926v-189.63h-37.926zM493.037 334.222h37.926v151.704h-37.926v-151.704zM455.111 523.852h113.778v-227.556h-113.778v227.556zM94.815 144.593c31.403 0 56.889 25.486 56.889 56.889s-25.486 56.889-56.889 56.889-56.889-25.486-56.889-56.889 25.486-56.889 56.889-56.889zM94.815 106.667c-52.376 0-94.815 42.439-94.815 94.815s42.439 94.815 94.815 94.815 94.815-42.439 94.815-94.815-42.439-94.815-94.815-94.815zM929.185 485.926c31.403 0 56.889 25.486 56.889 56.889s-25.486 56.889-56.889 56.889-56.889-25.486-56.889-56.889 25.486-56.889 56.889-56.889zM929.185 448c-52.376 0-94.815 42.439-94.815 94.815s42.439 94.815 94.815 94.815 94.815-42.439 94.815-94.815-42.439-94.815-94.815-94.815z" />
<glyph unicode="&#xe949;" glyph-name="ticon_73" data-tags="ticon_73" d="M929.881 139.42c-42.429 381.017-344.687 683.587-725.66 726.372l-4.986-44.255c360.314-40.47 646.278-326.701 686.392-687.059l44.255 4.942zM89.043 759.652v-623.304h44.522v623.304zM823.652 69.565h-623.304v-44.522h623.304zM111.304 781.913c36.864 0 66.783 29.919 66.783 66.783s-29.919 66.783-66.783 66.783-66.783-29.919-66.783-66.783 29.919-66.783 66.783-66.783zM111.304 737.391c-61.485 0-111.304 49.82-111.304 111.304s49.82 111.304 111.304 111.304 111.304-49.82 111.304-111.304-49.82-111.304-111.304-111.304zM912.696-19.478c36.864 0 66.783 29.919 66.783 66.783s-29.919 66.783-66.783 66.783-66.783-29.919-66.783-66.783 29.919-66.783 66.783-66.783zM912.696-64c-61.485 0-111.304 49.82-111.304 111.304s49.82 111.304 111.304 111.304 111.304-49.82 111.304-111.304-49.82-111.304-111.304-111.304zM111.304-19.478c36.864 0 66.783 29.919 66.783 66.783s-29.919 66.783-66.783 66.783-66.783-29.919-66.783-66.783 29.919-66.783 66.783-66.783zM111.304-64c-61.485 0-111.304 49.82-111.304 111.304s49.82 111.304 111.304 111.304 111.304-49.82 111.304-111.304-49.82-111.304-111.304-111.304z" />
<glyph unicode="&#xe94a;" glyph-name="ticon_74" data-tags="ticon_74" d="M81.92 837.12h675.84v40.96h-675.84zM942.080 58.88h-675.84v-40.96h675.84zM184.32-23.040c33.915 0 61.44 27.525 61.44 61.44s-27.525 61.44-61.44 61.44-61.44-27.525-61.44-61.44 27.525-61.44 61.44-61.44zM184.32-64c-56.566 0-102.4 45.834-102.4 102.4s45.834 102.4 102.4 102.4 102.4-45.834 102.4-102.4-45.834-102.4-102.4-102.4zM839.68 796.16c33.915 0 61.44 27.525 61.44 61.44s-27.525 61.44-61.44 61.44-61.44-27.525-61.44-61.44 27.525-61.44 61.44-61.44zM839.68 755.2c-56.566 0-102.4 45.834-102.4 102.4s45.834 102.4 102.4 102.4 102.4-45.834 102.4-102.4-45.834-102.4-102.4-102.4zM491.52 673.28v-573.44h40.96v573.44zM512 796.16l102.4-122.88h-204.8z" />
<glyph unicode="&#xe94b;" glyph-name="ticon_75" data-tags="ticon_75" d="M737.28 468.48h-573.44v-40.96h573.44zM737.28 345.6v204.8l122.88-102.4zM901.12 693.76v-675.84h40.96v675.84zM81.92 878.080v-675.84h40.96v675.84zM102.4 58.88c33.915 0 61.44 27.525 61.44 61.44s-27.525 61.44-61.44 61.44-61.44-27.525-61.44-61.44 27.525-61.44 61.44-61.44zM102.4 17.92c-56.566 0-102.4 45.834-102.4 102.4s45.834 102.4 102.4 102.4 102.4-45.834 102.4-102.4-45.834-102.4-102.4-102.4zM921.6 714.24c33.915 0 61.44 27.525 61.44 61.44s-27.525 61.44-61.44 61.44-61.44-27.525-61.44-61.44 27.525-61.44 61.44-61.44zM921.6 673.28c-56.566 0-102.4 45.834-102.4 102.4s45.834 102.4 102.4 102.4 102.4-45.834 102.4-102.4-45.834-102.4-102.4-102.4z" />
<glyph unicode="&#xe94c;" glyph-name="ticon_76" data-tags="ticon_76" d="M192 64v-42.667h746.667v746.667h-42.667v-704zM832 832v42.667h-746.667v-746.667h42.667v704zM106.667-21.333c35.328 0 64 28.672 64 64s-28.672 64-64 64-64-28.672-64-64 28.672-64 64-64zM106.667-64c-58.923 0-106.667 47.744-106.667 106.667s47.744 106.667 106.667 106.667 106.667-47.744 106.667-106.667-47.744-106.667-106.667-106.667zM917.333 789.333c35.328 0 64 28.672 64 64s-28.672 64-64 64-64-28.672-64-64 28.672-64 64-64zM917.333 746.667c-58.923 0-106.667 47.744-106.667 106.667s47.744 106.667 106.667 106.667 106.667-47.744 106.667-106.667-47.744-106.667-106.667-106.667zM469.333 661.333v-554.667h42.667v554.667zM490.667 789.333l106.667-128h-213.333zM725.333 448h-554.667v-42.667h554.667zM725.333 320v213.333l128-106.667z" />
<glyph unicode="&#xe94d;" glyph-name="ticon_77" data-tags="ticon_77" d="M0 609.6l511.488-417.6 512.512 423.040-76.352 88.96-474.496-391.808 75.968 0.128-473.216 386.56z" />
<glyph unicode="&#xe94e;" glyph-name="ticon_78" data-tags="ticon_78" d="M694.857 740.571h-36.571v-256h-109.714v-36.571h109.714v-292.571h36.571v109.714h109.714v36.571h-109.714v438.857zM402.286 704h-36.571v-475.429h-109.714v-36.571h109.714v-73.143h36.571v475.429h109.714v36.571h-109.714v73.143z" />
<glyph unicode="&#xe94f;" glyph-name="ticon_79" data-tags="ticon_79" d="M621.714 557.714v-219.429h109.714v219.429h-109.714zM603.429 594.286h146.286c10.099 0 18.286-8.187 18.286-18.286v0-256c0-10.099-8.187-18.286-18.286-18.286v0h-146.286c-10.099 0-18.286 8.187-18.286 18.286v0 256c0 10.099 8.187 18.286 18.286 18.286v0zM658.286 704h36.571v-128h-36.571zM658.286 320h36.571v-128h-36.571zM329.143 667.429v-438.857h109.714v438.857h-109.714zM310.857 704h146.286c10.099 0 18.286-8.187 18.286-18.286v0-475.429c0-10.099-8.187-18.286-18.286-18.286v0h-146.286c-10.099 0-18.286 8.187-18.286 18.286v0 475.429c0 10.099 8.187 18.286 18.286 18.286v0zM365.714 813.714h36.571v-128h-36.571zM365.714 210.286h36.571v-128h-36.571z" />
<glyph unicode="&#xe950;" glyph-name="ticon_80" data-tags="ticon_80" d="M927.086 764.343l-25.6 25.6-334.629-334.263-170.057 169.691-12.8 13.166-12.8-13.166-310.857-310.857 25.6-25.6 298.057 297.691 170.057-169.691 12.8-13.166 12.8 13.166 347.429 347.429zM73.143 192v-36.571h36.571v36.571h-36.571zM146.286 228.571v36.571h36.571v36.571h36.571v36.571h36.571v36.571h36.571v36.571h36.571v36.571h36.571v36.571h36.571v-36.571h36.571v-36.571h36.571v-36.571h36.571v-36.571h36.571v-36.571h36.571v36.571h36.571v36.571h36.571v36.571h36.571v36.571h36.571v36.571h36.571v36.571h36.571v36.571h36.571v36.571h36.571v36.571h36.571v-36.571h-36.571v-36.571h36.571v-36.571h-36.571v-36.571h36.571v-36.571h-36.571v-36.571h36.571v-36.571h-36.571v-36.571h36.571v-36.571h-36.571v-36.571h36.571v-36.571h-36.571v-36.571h36.571v-36.571h-36.571v36.571h-36.571v-36.571h-36.571v36.571h-36.571v-36.571h-36.571v36.571h-36.571v-36.571h-36.571v36.571h-36.571v-36.571h-36.571v36.571h-36.571v-36.571h-36.571v36.571h-36.571v-36.571h-36.571v36.571h-36.571v-36.571h-36.571v36.571h-36.571v-36.571h-36.571v36.571h-36.571v-36.571h-36.571v36.571h-36.571v-36.571h-36.571v36.571h-36.571v36.571h36.571zM182.857 228.571h-36.571v-36.571h36.571v36.571zM219.429 228.571v36.571h-36.571v-36.571h36.571zM256 228.571h-36.571v-36.571h36.571v36.571zM256 265.143h-36.571v36.571h36.571v-36.571zM292.571 265.143h-36.571v-36.571h36.571v-36.571h36.571v36.571h36.571v-36.571h36.571v36.571h36.571v-36.571h36.571v36.571h36.571v-36.571h36.571v36.571h36.571v-36.571h36.571v36.571h36.571v-36.571h36.571v36.571h36.571v-36.571h36.571v36.571h36.571v-36.571h36.571v36.571h36.571v36.571h-36.571v36.571h36.571v36.571h-36.571v36.571h36.571v36.571h-36.571v36.571h36.571v36.571h-36.571v36.571h36.571v36.571h-36.571v-36.571h-36.571v-36.571h-36.571v-36.571h-36.571v-36.571h-36.571v-36.571h-36.571v-36.571h-36.571v-36.571h-36.571v-36.571h-36.571v36.571h-36.571v36.571h-36.571v36.571h-36.571v36.571h-36.571v36.571h-36.571v-36.571h-36.571v-36.571h-36.571v-36.571h-36.571v-36.571h36.571v-36.571zM329.143 265.143h-36.571v-36.571h36.571v36.571zM329.143 301.714v36.571h-36.571v-36.571h36.571zM365.714 301.714v36.571h-36.571v36.571h36.571v36.571h36.571v-36.571h36.571v-36.571h36.571v-36.571h36.571v-36.571h36.571v-36.571h-36.571v36.571h-36.571v-36.571h-36.571v36.571h-36.571v-36.571h-36.571v36.571h-36.571v36.571h36.571zM402.286 301.714v-36.571h-36.571v36.571h36.571zM402.286 338.286v36.571h-36.571v-36.571h36.571zM402.286 338.286v-36.571h36.571v-36.571h36.571v36.571h-36.571v36.571h-36.571zM621.714 265.143h36.571v36.571h-36.571v-36.571zM694.857 265.143h-36.571v-36.571h36.571v36.571zM694.857 301.714v36.571h-36.571v-36.571h36.571zM731.429 301.714h-36.571v-36.571h36.571v-36.571h36.571v36.571h36.571v-36.571h36.571v36.571h-36.571v36.571h36.571v36.571h-36.571v36.571h36.571v36.571h-36.571v36.571h36.571v36.571h-36.571v-36.571h-36.571v-36.571h-36.571v-36.571h-36.571v-36.571h36.571v-36.571zM768 301.714h-36.571v-36.571h36.571v36.571zM768 338.286h36.571v-36.571h-36.571v36.571zM768 374.857h36.571v36.571h-36.571v-36.571zM768 374.857v-36.571h-36.571v36.571h36.571zM621.714 265.143h-36.571v-36.571h36.571v36.571z" />
<glyph unicode="&#xe951;" glyph-name="ticon_81" data-tags="ticon_81" d="M493.714 740.571c-171.682 0-310.857-139.175-310.857-310.857s139.175-310.857 310.857-310.857v0c171.682 0 310.857 139.175 310.857 310.857s-139.175 310.857-310.857 310.857v0zM146.286 429.714c0 191.88 155.549 347.429 347.429 347.429s347.429-155.549 347.429-347.429v0c0-191.88-155.549-347.429-347.429-347.429s-347.429 155.549-347.429 347.429v0zM329.143 448h146.286v146.286h36.571v-146.286h146.286v-36.571h-146.286v-146.286h-36.571v146.286h-146.286v36.571z" />
<glyph unicode="&#xe952;" glyph-name="ticon_205" data-tags="ticon_205" d="M658.286 411.429h292.571v36.571h-292.571zM512 301.714v-292.571h36.571v292.571zM512 850.286v-292.571h36.571v292.571zM109.714 411.429h292.571v36.571h-292.571z" />
<glyph unicode="&#xe953;" glyph-name="ticon_83" data-tags="ticon_83" d="M406.601 740.571c-7.112 0-13.276-4.061-16.299-9.99l-0.048-0.104-31.525-63.049h-157.586c-30.297 0-54.857-24.56-54.857-54.857v0-365.714c0-30.297 24.56-54.857 54.857-54.857v0h585.143c30.297 0 54.857 24.56 54.857 54.857v0 365.714c0 30.297-24.56 54.857-54.857 54.857v0h-157.586l-31.525 63.049c-3.072 6.033-9.235 10.093-16.347 10.094h-174.226zM357.522 746.789c9.201 18.139 27.714 30.354 49.079 30.354h174.226c21.365-0.001 39.877-12.215 48.935-30.042l0.144-0.312 21.394-42.789h134.985c50.495 0 91.429-40.934 91.429-91.429v0-365.714c0-50.495-40.934-91.429-91.429-91.429v0h-585.143c-50.495 0-91.429 40.934-91.429 91.429v0 365.714c0 50.495 40.934 91.429 91.429 91.429v0h134.985l21.394 42.789zM493.714 301.714v0c-70.692 0-128 57.308-128 128s57.308 128 128 128v0c70.692 0 128-57.308 128-128s-57.308-128-128-128zM493.714 265.143c90.89 0 164.571 73.681 164.571 164.571s-73.681 164.571-164.571 164.571v0c-90.89 0-164.571-73.681-164.571-164.571s73.681-164.571 164.571-164.571v0z" />
<glyph unicode="&#xe954;" glyph-name="ticon_84" data-tags="ticon_84" d="M747.849 648.96l76.91-333.239 35.621 8.229-76.91 333.239zM509.915 447.598l279.077-177.591 19.639 30.866-279.077 177.591zM525.861 531.529l175.982 131.986-21.943 29.257-175.982-131.986zM400.823 454.29l-172.654-246.638 29.952-20.955 172.654 246.638zM231.534 204.069l84.48 478.647-36.023 6.363-84.48-478.647zM330.642 687.397l72.96-127.707 31.744 18.139-72.96 127.707zM310.857 704c30.281 0 54.857 24.576 54.857 54.857s-24.576 54.857-54.857 54.857-54.857-24.576-54.857-54.857 24.576-54.857 54.857-54.857zM310.857 667.429c-50.505 0-91.429 40.923-91.429 91.429s40.923 91.429 91.429 91.429 91.429-40.923 91.429-91.429-40.923-91.429-91.429-91.429zM201.143 82.286c30.281 0 54.857 24.576 54.857 54.857s-24.576 54.857-54.857 54.857-54.857-24.576-54.857-54.857 24.576-54.857 54.857-54.857zM201.143 45.714c-50.505 0-91.429 40.923-91.429 91.429s40.923 91.429 91.429 91.429 91.429-40.923 91.429-91.429-40.923-91.429-91.429-91.429zM457.143 448c30.281 0 54.857 24.576 54.857 54.857s-24.576 54.857-54.857 54.857-54.857-24.576-54.857-54.857 24.576-54.857 54.857-54.857zM457.143 411.429c-50.505 0-91.429 40.923-91.429 91.429s40.923 91.429 91.429 91.429 91.429-40.923 91.429-91.429-40.923-91.429-91.429-91.429zM749.714 667.429c30.281 0 54.857 24.576 54.857 54.857s-24.576 54.857-54.857 54.857-54.857-24.576-54.857-54.857 24.576-54.857 54.857-54.857zM749.714 630.857c-50.505 0-91.429 40.923-91.429 91.429s40.923 91.429 91.429 91.429 91.429-40.923 91.429-91.429-40.923-91.429-91.429-91.429zM859.429 192c30.281 0 54.857 24.576 54.857 54.857s-24.576 54.857-54.857 54.857-54.857-24.576-54.857-54.857 24.576-54.857 54.857-54.857zM859.429 155.429c-50.505 0-91.429 40.923-91.429 91.429s40.923 91.429 91.429 91.429 91.429-40.923 91.429-91.429-40.923-91.429-91.429-91.429z" />
<glyph unicode="&#xe955;" glyph-name="ticon_85" data-tags="ticon_85" d="M557.568 159.269l40.997-12.983c-6.29-22.857-16.75-39.826-31.342-50.944-14.629-11.081-33.17-16.64-55.625-16.64-27.794 0-50.651 9.509-68.571 28.489-17.92 19.017-26.843 44.983-26.843 77.934 0 34.853 8.997 61.915 26.99 81.225 17.993 19.273 41.655 28.928 70.985 28.928 25.637 0 46.446-7.57 62.427-22.711 9.509-8.96 16.677-21.797 21.431-38.583l-41.874-9.984c-2.487 10.862-7.643 19.419-15.506 25.71s-17.408 9.435-28.635 9.435c-15.506 0-28.123-5.559-37.778-16.713s-14.482-29.184-14.482-54.126c0-26.478 4.754-45.349 14.299-56.576 9.509-11.227 21.906-16.859 37.157-16.859 11.227 0 20.919 3.584 29.001 10.715s13.897 18.395 17.445 33.719zM747.849 648.96l76.91-333.239 35.621 8.229-76.91 333.239zM509.915 447.598l279.077-177.591 19.639 30.866-279.077 177.591zM525.861 531.529l175.982 131.986-21.943 29.257-175.982-131.986zM400.823 454.29l-172.654-246.638 29.952-20.955 172.654 246.638zM231.534 204.069l84.48 478.647-36.023 6.363-84.48-478.647zM330.642 687.397l72.96-127.707 31.744 18.139-72.96 127.707zM310.857 704c30.281 0 54.857 24.576 54.857 54.857s-24.576 54.857-54.857 54.857-54.857-24.576-54.857-54.857 24.576-54.857 54.857-54.857zM310.857 667.429c-50.505 0-91.429 40.923-91.429 91.429s40.923 91.429 91.429 91.429 91.429-40.923 91.429-91.429-40.923-91.429-91.429-91.429zM201.143 82.286c30.281 0 54.857 24.576 54.857 54.857s-24.576 54.857-54.857 54.857-54.857-24.576-54.857-54.857 24.576-54.857 54.857-54.857zM201.143 45.714c-50.505 0-91.429 40.923-91.429 91.429s40.923 91.429 91.429 91.429 91.429-40.923 91.429-91.429-40.923-91.429-91.429-91.429zM457.143 448c30.281 0 54.857 24.576 54.857 54.857s-24.576 54.857-54.857 54.857-54.857-24.576-54.857-54.857 24.576-54.857 54.857-54.857zM457.143 411.429c-50.505 0-91.429 40.923-91.429 91.429s40.923 91.429 91.429 91.429 91.429-40.923 91.429-91.429-40.923-91.429-91.429-91.429zM749.714 667.429c30.281 0 54.857 24.576 54.857 54.857s-24.576 54.857-54.857 54.857-54.857-24.576-54.857-54.857 24.576-54.857 54.857-54.857zM749.714 630.857c-50.505 0-91.429 40.923-91.429 91.429s40.923 91.429 91.429 91.429 91.429-40.923 91.429-91.429-40.923-91.429-91.429-91.429zM859.429 192c30.281 0 54.857 24.576 54.857 54.857s-24.576 54.857-54.857 54.857-54.857-24.576-54.857-54.857 24.576-54.857 54.857-54.857zM859.429 155.429c-50.505 0-91.429 40.923-91.429 91.429s40.923 91.429 91.429 91.429 91.429-40.923 91.429-91.429-40.923-91.429-91.429-91.429z" />
<glyph unicode="&#xe956;" glyph-name="ticon_86" data-tags="ticon_86" d="M162.231 167.607l76.178 330.13-35.621 8.229-76.178-330.13zM367.397 357.522l-81.591 163.218-32.695-16.347 81.591-163.218zM492.288 728.942l-105.326-368.603 35.182-10.057 105.326 368.603zM674.158 358.363l-106.825 373.906-35.182-10.057 106.825-373.906zM773.376 517.888l-80.567-161.097 32.695-16.347 80.567 161.097zM933.449 177.993l-76.434 331.154-35.621-8.229 76.434-331.154zM36.571 265.143h274.286v36.571h-274.286zM457.143 265.143h146.286v36.571h-146.286zM749.714 265.143h237.714v36.571h-237.714zM237.714 521.143c30.281 0 54.857 24.576 54.857 54.857s-24.576 54.857-54.857 54.857-54.857-24.576-54.857-54.857 24.576-54.857 54.857-54.857zM237.714 484.571c-50.505 0-91.429 40.923-91.429 91.429s40.923 91.429 91.429 91.429 91.429-40.923 91.429-91.429-40.923-91.429-91.429-91.429zM128 45.714c30.281 0 54.857 24.576 54.857 54.857s-24.576 54.857-54.857 54.857-54.857-24.576-54.857-54.857 24.576-54.857 54.857-54.857zM128 9.143c-50.505 0-91.429 40.923-91.429 91.429s40.923 91.429 91.429 91.429 91.429-40.923 91.429-91.429-40.923-91.429-91.429-91.429zM384 228.571c30.281 0 54.857 24.576 54.857 54.857s-24.576 54.857-54.857 54.857-54.857-24.576-54.857-54.857 24.576-54.857 54.857-54.857zM384 192c-50.505 0-91.429 40.923-91.429 91.429s40.923 91.429 91.429 91.429 91.429-40.923 91.429-91.429-40.923-91.429-91.429-91.429zM676.571 228.571c30.281 0 54.857 24.576 54.857 54.857s-24.576 54.857-54.857 54.857-54.857-24.576-54.857-54.857 24.576-54.857 54.857-54.857zM676.571 192c-50.505 0-91.429 40.923-91.429 91.429s40.923 91.429 91.429 91.429 91.429-40.923 91.429-91.429-40.923-91.429-91.429-91.429zM822.857 521.143c30.281 0 54.857 24.576 54.857 54.857s-24.576 54.857-54.857 54.857-54.857-24.576-54.857-54.857 24.576-54.857 54.857-54.857zM822.857 484.571c-50.505 0-91.429 40.923-91.429 91.429s40.923 91.429 91.429 91.429 91.429-40.923 91.429-91.429-40.923-91.429-91.429-91.429zM932.571 45.714c30.281 0 54.857 24.576 54.857 54.857s-24.576 54.857-54.857 54.857-54.857-24.576-54.857-54.857 24.576-54.857 54.857-54.857zM932.571 9.143c-50.505 0-91.429 40.923-91.429 91.429s40.923 91.429 91.429 91.429 91.429-40.923 91.429-91.429-40.923-91.429-91.429-91.429zM530.286 740.571c30.281 0 54.857 24.576 54.857 54.857s-24.576 54.857-54.857 54.857-54.857-24.576-54.857-54.857 24.576-54.857 54.857-54.857zM530.286 704c-50.505 0-91.429 40.923-91.429 91.429s40.923 91.429 91.429 91.429 91.429-40.923 91.429-91.429-40.923-91.429-91.429-91.429z" />
<glyph unicode="&#xe957;" glyph-name="ticon_87" data-tags="ticon_87" d="M785.81 768.073l-439.552-54.93 4.535-36.279 439.552 54.93zM242.066 617.874l-81.079-405.321 35.877-7.168 81.079 405.321zM238.958 128l441.454 55.186-4.535 36.279-441.454-55.186zM782.153 279.333l80.823 404.041-35.877 7.168-80.823-404.041zM311.113 623.031l375.040-375.040 25.856 25.856-375.040 375.040zM274.286 630.857c30.281 0 54.857 24.576 54.857 54.857s-24.576 54.857-54.857 54.857-54.857-24.576-54.857-54.857 24.576-54.857 54.857-54.857zM274.286 594.286c-50.505 0-91.429 40.923-91.429 91.429s40.923 91.429 91.429 91.429 91.429-40.923 91.429-91.429-40.923-91.429-91.429-91.429zM164.571 82.286c30.281 0 54.857 24.576 54.857 54.857s-24.576 54.857-54.857 54.857-54.857-24.576-54.857-54.857 24.576-54.857 54.857-54.857zM164.571 45.714c-50.505 0-91.429 40.923-91.429 91.429s40.923 91.429 91.429 91.429 91.429-40.923 91.429-91.429-40.923-91.429-91.429-91.429zM859.429 704c30.281 0 54.857 24.576 54.857 54.857s-24.576 54.857-54.857 54.857-54.857-24.576-54.857-54.857 24.576-54.857 54.857-54.857zM859.429 667.429c-50.505 0-91.429 40.923-91.429 91.429s40.923 91.429 91.429 91.429 91.429-40.923 91.429-91.429-40.923-91.429-91.429-91.429zM749.714 155.429c30.281 0 54.857 24.576 54.857 54.857s-24.576 54.857-54.857 54.857-54.857-24.576-54.857-54.857 24.576-54.857 54.857-54.857zM749.714 118.857c-50.505 0-91.429 40.923-91.429 91.429s40.923 91.429 91.429 91.429 91.429-40.923 91.429-91.429-40.923-91.429-91.429-91.429z" />
<glyph unicode="&#xe958;" glyph-name="ticon_88" data-tags="ticon_88" d="M345.856 270.848l-196.425-87.771 14.921-33.39 196.425 87.771zM480.183 330.862l14.921-33.39 500.59 223.671-246.345 110.080-14.921-33.39 171.593-76.69zM405.102 744.96l195.291-87.259 14.921 33.39-195.291 87.259zM270.665 805.047l14.921 33.39-212.443 94.903v-723.054h36.571v666.661zM135.607 200.338l201.509 518.181-34.085 13.239-201.509-518.181zM338.834 726.309l53.394-373.687 36.206 5.157-53.394 373.687zM477.586 332.983l173.458 247.771-29.952 20.955-173.458-247.771zM347.429 740.571c30.281 0 54.857 24.576 54.857 54.857s-24.576 54.857-54.857 54.857-54.857-24.576-54.857-54.857 24.576-54.857 54.857-54.857zM347.429 704c-50.505 0-91.429 40.923-91.429 91.429s40.923 91.429 91.429 91.429 91.429-40.923 91.429-91.429-40.923-91.429-91.429-91.429zM420.571 228.571c30.281 0 54.857 24.576 54.857 54.857s-24.576 54.857-54.857 54.857-54.857-24.576-54.857-54.857 24.576-54.857 54.857-54.857zM420.571 192c-50.505 0-91.429 40.923-91.429 91.429s40.923 91.429 91.429 91.429 91.429-40.923 91.429-91.429-40.923-91.429-91.429-91.429zM676.571 594.286c30.281 0 54.857 24.576 54.857 54.857s-24.576 54.857-54.857 54.857-54.857-24.576-54.857-54.857 24.576-54.857 54.857-54.857zM676.571 557.714c-50.505 0-91.429 40.923-91.429 91.429s40.923 91.429 91.429 91.429 91.429-40.923 91.429-91.429-40.923-91.429-91.429-91.429zM91.429 82.286c30.281 0 54.857 24.576 54.857 54.857s-24.576 54.857-54.857 54.857-54.857-24.576-54.857-54.857 24.576-54.857 54.857-54.857zM91.429 45.714c-50.505 0-91.429 40.923-91.429 91.429s40.923 91.429 91.429 91.429 91.429-40.923 91.429-91.429-40.923-91.429-91.429-91.429z" />
<glyph unicode="&#xe959;" glyph-name="ticon_89" data-tags="ticon_89" d="M11.081 313.637l40.375-17.298 14.409 33.609-40.375 17.298zM187.721 237.934l121.966-52.261 14.409 33.609-121.966 52.261zM443.758 128.219l122.587-52.517 14.409 33.609-122.587 52.517zM702.281 17.408l58.514-25.088 14.409 33.609-58.514 25.088zM10.971 789.102l41.326-17.701 14.409 33.609-41.326 17.701-14.409-33.609zM25.381 822.711l41.326-17.701-14.409-33.609-41.326 17.701 14.409 33.609zM188.014 713.253l121.6-52.114 14.409 33.609-121.6 52.114zM443.721 603.648l122.624-52.553 14.409 33.609-122.624 52.553zM702.939 492.544l213.504-91.502 14.409 33.609-213.504 91.502zM109.714 686.702v-328.009h36.571v328.009zM326.583 599.003l-168.814-241.152 29.952-20.955 168.814 241.152zM402.286 246.857v329.143h-36.571v-329.143zM581.413 487.643l-168.814-241.152 29.952-20.955 168.814 241.152zM658.286 137.143v329.143h-36.571v-329.143zM889.161 769.39l-240.274-630.747 34.158-13.019 240.274 630.747zM128 704c30.281 0 54.857 24.576 54.857 54.857s-24.576 54.857-54.857 54.857-54.857-24.576-54.857-54.857 24.576-54.857 54.857-54.857zM128 667.429c-50.505 0-91.429 40.923-91.429 91.429s40.923 91.429 91.429 91.429 91.429-40.923 91.429-91.429-40.923-91.429-91.429-91.429zM128 228.571c30.281 0 54.857 24.576 54.857 54.857s-24.576 54.857-54.857 54.857-54.857-24.576-54.857-54.857 24.576-54.857 54.857-54.857zM128 192c-50.505 0-91.429 40.923-91.429 91.429s40.923 91.429 91.429 91.429 91.429-40.923 91.429-91.429-40.923-91.429-91.429-91.429zM384 118.857c30.281 0 54.857 24.576 54.857 54.857s-24.576 54.857-54.857 54.857-54.857-24.576-54.857-54.857 24.576-54.857 54.857-54.857zM384 82.286c-50.505 0-91.429 40.923-91.429 91.429s40.923 91.429 91.429 91.429 91.429-40.923 91.429-91.429-40.923-91.429-91.429-91.429zM640 484.571c30.281 0 54.857 24.576 54.857 54.857s-24.576 54.857-54.857 54.857-54.857-24.576-54.857-54.857 24.576-54.857 54.857-54.857zM640 448c-50.505 0-91.429 40.923-91.429 91.429s40.923 91.429 91.429 91.429 91.429-40.923 91.429-91.429-40.923-91.429-91.429-91.429zM932.571 777.143c30.281 0 54.857 24.576 54.857 54.857s-24.576 54.857-54.857 54.857-54.857-24.576-54.857-54.857 24.576-54.857 54.857-54.857zM932.571 740.571c-50.505 0-91.429 40.923-91.429 91.429s40.923 91.429 91.429 91.429 91.429-40.923 91.429-91.429-40.923-91.429-91.429-91.429zM640 9.143c30.281 0 54.857 24.576 54.857 54.857s-24.576 54.857-54.857 54.857-54.857-24.576-54.857-54.857 24.576-54.857 54.857-54.857zM640-27.429c-50.505 0-91.429 40.923-91.429 91.429s40.923 91.429 91.429 91.429 91.429-40.923 91.429-91.429-40.923-91.429-91.429-91.429zM384 594.286c30.281 0 54.857 24.576 54.857 54.857s-24.576 54.857-54.857 54.857-54.857-24.576-54.857-54.857 24.576-54.857 54.857-54.857zM384 557.714c-50.505 0-91.429 40.923-91.429 91.429s40.923 91.429 91.429 91.429 91.429-40.923 91.429-91.429-40.923-91.429-91.429-91.429z" />
</font>
</defs>
</svg>
